<?xml version="1.0" encoding="utf-8"?>
<!-- Generator: Adobe Illustrator 16.0.0, SVG Export Plug-In . SVG Version: 6.00 Build 0)  -->
<!DOCTYPE svg PUBLIC "-//W3C//DTD SVG 1.1//EN" "http://www.w3.org/Graphics/SVG/1.1/DTD/svg11.dtd">
<svg version="1.1" id="Layer_1" xmlns:sketch="http://www.bohemiancoding.com/sketch/ns"
	 xmlns="http://www.w3.org/2000/svg" xmlns:xlink="http://www.w3.org/1999/xlink" x="0px" y="0px" width="90px" height="90px"
	 viewBox="0 0 90 90" enable-background="new 0 0 90 90" xml:space="preserve">
<title>arjian_green</title>
<description>Created with Sketch (http://www.bohemiancoding.com/sketch)</description>
<g id="Page-1" sketch:type="MSPage">
	<g id="arjian_green" sketch:type="MSArtboardGroup">
		<path id="Path-1" sketch:type="MSShapeGroup" fill="#2B7581" d="M28.936,65.153l7.911,7.911v16.357h-7.633l-0.021-16.337
			L21,64.894V49.107l4.396-4.396h7.633l3.817,3.816h8.163h8.162l3.817-3.816h7.633l4.396,4.396v15.786l-8.191,8.191l-0.021,16.337
			h-7.634V73.064l7.911-7.911V48.525l-8.047,8.047h-8.026h-8.026l-8.047-8.047V65.153z M28.936,24.269l7.911-7.911V0h-7.633
			l-0.021,16.336L21,24.528v15.787l4.396,4.396h7.633l3.817-3.817h8.163h8.162l3.817,3.817h7.633l4.396-4.396V24.528l-8.191-8.192
			L60.805,0h-7.634v16.357l7.911,7.911v16.628l-8.047-8.047h-8.026h-8.026l-8.047,8.047V24.269z"/>
	</g>
</g>
</svg>
