<?xml version="1.0" encoding="utf-8"?>
<!-- Generator: Adobe Illustrator 16.0.0, SVG Export Plug-In . SVG Version: 6.00 Build 0)  -->
<!DOCTYPE svg PUBLIC "-//W3C//DTD SVG 1.1//EN" "http://www.w3.org/Graphics/SVG/1.1/DTD/svg11.dtd">
<svg version="1.1" id="Layer_1" xmlns:sketch="http://www.bohemiancoding.com/sketch/ns"
	 xmlns="http://www.w3.org/2000/svg" xmlns:xlink="http://www.w3.org/1999/xlink" x="0px" y="0px" width="90px" height="90px"
	 viewBox="0 0 90 90" enable-background="new 0 0 90 90" xml:space="preserve">
<title>firewall_blue</title>
<description>Created with Sketch (http://www.bohemiancoding.com/sketch)</description>
<path fill="#33CC00" d="M45.323,27.704c-8.404,0-15.217,6.822-15.217,15.238c0,8.416,6.813,15.238,15.217,15.238
	c8.403,0,15.218-6.822,15.218-15.238C60.541,34.526,53.729,27.704,45.323,27.704z M45.323,50.561c-4.202,0-7.608-3.41-7.608-7.619
	c0-4.208,3.406-7.619,7.608-7.619s7.608,3.411,7.608,7.619C52.932,47.15,49.525,50.561,45.323,50.561z"/>
<rect x="14.163" y="4.755" transform="matrix(0.7071 0.7071 -0.7071 0.7071 15.9833 -8.3762)" fill="#33CC00" width="7.878" height="20.699"/>
<rect x="59.105" y="8.316" transform="matrix(0.7071 0.7071 -0.7071 0.7071 33.4551 -42.6714)" fill="#33CC00" width="18.268" height="21.469"/>
<rect x="22.861" y="14.005" transform="matrix(0.7071 0.7071 -0.7071 0.7071 25.0712 -11.8168)" fill="#33CC00" width="7.878" height="20.7"/>
<rect x="34.997" y="64.166" fill="#33CC00" width="20.7" height="7.878"/>
<rect x="34.997" y="76.684" fill="#33CC00" width="20.7" height="7.877"/>
</svg>
