<?xml version="1.0" encoding="utf-8"?>
<!-- Generator: Adobe Illustrator 16.0.0, SVG Export Plug-In . SVG Version: 6.00 Build 0)  -->
<!DOCTYPE svg PUBLIC "-//W3C//DTD SVG 1.1//EN" "http://www.w3.org/Graphics/SVG/1.1/DTD/svg11.dtd">
<svg version="1.1" id="Layer_1" xmlns:sketch="http://www.bohemiancoding.com/sketch/ns"
	 xmlns="http://www.w3.org/2000/svg" xmlns:xlink="http://www.w3.org/1999/xlink" x="0px" y="0px" width="90px" height="90px"
	 viewBox="0 0 90 90" enable-background="new 0 0 90 90" xml:space="preserve">
<title>progtam_blue</title>
<description>Created with Sketch (http://www.bohemiancoding.com/sketch)</description>
<g id="Page-1" sketch:type="MSPage">
	<g id="progtam_blue" sketch:type="MSArtboardGroup">
		<path id="Oval-4" sketch:type="MSShapeGroup" fill="#33CC00" d="M44.174,14C34.56,14,25.955,18.272,20.2,25.001l8.945,11.114
			c3.136-5.107,8.817-8.519,15.305-8.519c7.229,0,13.457,4.236,16.278,10.333H74.73C71.492,24.216,59.041,14,44.174,14z M44.174,76
			c-9.297,0-17.65-3.995-23.396-10.344l9.017-10.242c3.236,4.555,8.593,7.533,14.654,7.533c7.229,0,13.457-4.236,16.279-10.333
			h13.869C71.162,66.055,58.844,76,44.174,76z M44.174,54.789c5.473,0,9.908-4.383,9.908-9.789c0-5.407-4.436-9.79-9.908-9.79
			c-5.472,0-9.908,4.383-9.908,9.79C34.266,50.406,38.702,54.789,44.174,54.789z M15,28.141v34.263L29.312,46.04L15,28.141z"/>
	</g>
</g>
</svg>
