<?xml version="1.0" encoding="utf-8"?>
<!-- Generator: Adobe Illustrator 16.0.0, SVG Export Plug-In . SVG Version: 6.00 Build 0)  -->
<!DOCTYPE svg PUBLIC "-//W3C//DTD SVG 1.1//EN" "http://www.w3.org/Graphics/SVG/1.1/DTD/svg11.dtd">
<svg version="1.1" id="Layer_1" xmlns:sketch="http://www.bohemiancoding.com/sketch/ns"
	 xmlns="http://www.w3.org/2000/svg" xmlns:xlink="http://www.w3.org/1999/xlink" x="0px" y="0px" width="90px" height="90px"
	 viewBox="0 0 90 90" enable-background="new 0 0 90 90" xml:space="preserve">
<title>virus_blue</title>
<description>Created with Sketch (http://www.bohemiancoding.com/sketch)</description>
<g id="Page-1" sketch:type="MSPage">
	<g id="virus_blue" sketch:type="MSArtboardGroup">
		<path id="Path-3" sketch:type="MSShapeGroup" fill="#33CC00" d="M24.92,59.991L24.905,44.89l1.053-0.466l4.616,3.26l0.009,9.262
			l7.607,4.18l0.435,5.525l-0.701,0.484L24.92,59.991z M65.07,59.086l-0.148-14.034l-5.37,3.792l0.079,7.447l-6.316,3.902
			l-0.801,5.981l0.479,0.376L65.07,59.086z M44.351,25.247l13.242,7.276l-0.116,0.89l-5.563,2.391l-7.272-3.995l-5.642,3.413
			l-5.475-2.353l-0.13-0.994L44.351,25.247z M23.007,34.908L6,45.783v20.121l4.389-15.771l15.91-7.069l11.521,8.157l7.132-11.963
			L32.333,33.82l-2.195-16.857L41.66,5l-18.104,9.788L23.007,34.908z M67.993,35.452L85,46.328v20.119l-4.389-15.771l-15.91-7.069
			L53.18,51.766l-7.132-11.964l12.617-5.438l2.194-16.857L49.34,5.544l18.104,9.788L67.993,35.452z M27.439,83.264L10.198,72.9
			l15.774,4.358l14.251-10.001L39.167,53.18l13.924,0.047l-1.839,13.619l13.314,10.563l16.185-3.718l-17.71,10.482l-17.523-9.892
			L27.439,83.264z"/>
	</g>
</g>
</svg>
