<?xml version="1.0" encoding="utf-8"?>
<!-- Generator: Adobe Illustrator 16.0.0, SVG Export Plug-In . SVG Version: 6.00 Build 0)  -->
<!DOCTYPE svg PUBLIC "-//W3C//DTD SVG 1.1//EN" "http://www.w3.org/Graphics/SVG/1.1/DTD/svg11.dtd">
<svg version="1.1" id="Layer_1" xmlns="http://www.w3.org/2000/svg" xmlns:xlink="http://www.w3.org/1999/xlink" x="0px" y="0px"
	 width="1276.271px" height="740.677px" viewBox="0 0 1276.271 740.677" enable-background="new 0 0 1276.271 740.677"
	 xml:space="preserve">
<path fill-rule="evenodd" clip-rule="evenodd" d="M217.848,277.196c-5.792-3.107-11.686-6.043-17.352-9.365
	c-8.396-4.92-16.593-10.162-22.444-18.25c-6.562-9.072-12.708-18.525-15.597-29.358c-1.873-7.024-1.646-14.6-2.52-21.909
	c-0.184-1.54-0.688-3.727-1.744-4.277c-0.967-0.504-3.286,0.377-4.309,1.368c-10.147,9.849-20.149,19.847-30.684,29.431
	c2.42-2.914,4.729-5.93,7.279-8.723c7.381-8.086,14.972-15.98,22.241-24.163c2.826-3.181,5.35-3.916,8.959-0.18
	c1.529-6.53,2.709-12.53,4.361-18.396c2.378-8.445,6.211-15.491,14.818-19.868c7.677-3.902,14.676-9.335,21.476-14.723
	c10.806-8.56,22.04-16.621,35.354-20.188c5.479-1.467,6.919-5.541,9.96-8.481c6.98-6.748,13.318-14.16,19.917-21.302
	c-0.279-0.508-0.559-1.015-0.839-1.521c-4.985,0-10.064,0.613-14.938-0.127c-10.656-1.619-18.633,2.629-25.732,9.937
	c-6.346,6.531-12.966,12.796-19.425,19.218c-3.127,3.109-5.702,7.039-9.328,9.331c-11.109,7.022-17.753,18.159-26.275,27.516
	c-8.999,9.88-17.34,20.378-25.675,30.838c-8.044,10.095-15.79,20.433-23.528,30.768c-6.36,8.495-12.317,17.296-18.816,25.68
	c-7.656,9.878-15.927,19.282-23.499,29.221c-4.785,6.281-8.598,13.294-13.169,19.75c-7.982,11.272-16.169,22.4-24.426,33.474
	c-0.61,0.818-2.469,0.705-4.331,1.172c7.833-10.962,14.823-20.917,22.005-30.73c4.183-5.713,8.868-11.063,12.987-16.82
	c7.437-10.395,14.304-21.207,21.994-31.405c7.812-10.361,16.449-20.099,24.497-30.289c5.392-6.826,10.278-14.049,15.583-20.946
	c8.353-10.858,16.574-21.84,25.381-32.323c13.487-16.057,28.104-31.133,39.946-48.597c5.048-7.444,11.737-13.769,17.567-20.696
	c1.46-1.735,2.344-3.95,3.77-5.723c0.71-0.884,2.021-1.726,3.107-1.791c5.083-0.306,10.43,1.019,14.767-3.111
	c0.488-0.465,1.978-0.243,2.831,0.095c8.322,3.297,16.941,2.916,25.599,2.24c1.339-0.104,2.687-0.163,4.029-0.164
	c9.883-0.006,19.878,0.978,29.629-0.15c47.457-5.487,95.038-0.943,142.531-2.368c11.896-0.356,23.795-0.766,35.693-0.817
	c22.813-0.098,45.631,0.187,68.443-0.021c5.245-0.047,10.51-1.277,15.711-2.251c5.758-1.078,9.233,0.27,12.593,4.977
	c5.664,7.936,11.111,16.068,17.354,23.53c3.672,4.387,8.896,7.436,13.066,11.455c4.324,4.168,8.074,8.925,12.336,13.163
	c6.192,6.159,12.827,11.885,18.871,18.181c4.025,4.192,7.318,9.083,10.996,13.614c5.473,6.742,11.952,12.886,16.281,20.291
	c6.745,11.537,17.574,19.244,25.403,29.64c5.585,7.415,10.97,14.98,16.511,22.43c3.834,5.155,8.097,10.02,11.607,15.38
	c5.846,8.924,11.263,18.128,16.82,27.238c4.038,6.621,7.092,7.925,14.579,6.652c2.488-0.422,5.108-0.066,7.666-0.066
	c0.062,0.59,0.125,1.18,0.188,1.77c-4.607,0.223-9.215,0.447-14.211,0.689c1.628,3.548,3.074,6.699,4.52,9.85
	c-0.437,0.24-0.874,0.479-1.311,0.717c-1.905-2.502-4.232-4.797-5.593-7.566c-1.278-2.602-3.021-3.067-5.365-2.729
	c-8.342,1.205-16.659,2.598-25.014,3.707c-5.433,0.722-10.908,1.15-16.374,1.576c-11.102,0.867-22.206,1.717-33.319,2.43
	c-7.646,0.489-15.306,0.846-22.965,1.062c-12.984,0.364-25.975,0.468-38.957,0.87c-14.878,0.46-29.754,1.029-44.622,1.725
	c-16.14,0.755-32.288,1.459-48.397,2.652c-15.191,1.123-30.423,0.886-45.595,1.814c-11.785,0.721-23.471,2.936-35.233,4.172
	c-10.909,1.148-21.865,1.832-32.793,2.805c-12.385,1.104-24.76,2.313-37.142,3.453c-3.987,0.367-7.977,0.764-11.975,0.964
	c-18.5,0.929-37.015,1.601-55.501,2.739c-14.33,0.885-28.635,2.229-42.935,3.537c-18.392,1.686-36.756,3.683-55.156,5.265
	c-10.519,0.903-21.082,1.31-31.631,1.835c-18.732,0.932-37.48,1.585-56.199,2.734c-13.876,0.854-27.708,3.133-41.573,3.241
	c-11.72,0.092-23.457-2.021-35.788-3.216c0.761-1.089,1.007-1.682,1.187-1.661c6.403,0.699,12.788,1.934,19.201,2.103
	c12.989,0.342,25.994,0.18,38.99,0.059c2.734-0.025,5.448-0.932,8.193-1.151c12.841-1.033,25.676-2.292,38.541-2.86
	c19.821-0.878,39.697-0.76,59.489-2.024c12.95-0.827,25.777-3.467,38.687-5.07c7.045-0.874,14.145-1.335,21.227-1.887
	c15.657-1.216,31.317-2.395,46.98-3.528c2.383-0.173,4.8,0.11,7.184-0.057c16.086-1.127,32.167-2.325,48.251-3.486
	c8.582-0.619,17.181-1.055,25.746-1.851c10.748-0.998,21.467-2.303,32.204-3.427c3.538-0.37,7.094-0.551,10.635-0.888
	c9.438-0.896,18.862-1.953,28.311-2.713c7.703-0.619,15.432-0.9,22.968-1.321c3.827-8.715,10.148-14.082,19.842-15.189
	c-5.922,3.757-12.948,6.309-15.407,14.701c4.067-0.26,7.874-0.487,11.677-0.758c0.777-0.055,19.805-8.051,20.387-8.438
	c4.67-3.1,9.346-6.192,14.02-9.286c0.28,0.339,0.562,0.678,0.842,1.017c-6.197,4.652-12.396,9.304-18.594,13.955
	c0.179,0.601,0.356,1.199,0.534,1.799c4.345,0,8.69,0.037,13.035-0.012c3.883-0.044,6.94,0.293,10.104-4.192
	c4.333-6.146,11.204-10.546,17.163-15.48c3.646-3.017,7.58-5.692,11.479-8.387c0.868-0.6,2.127-0.637,3.29-0.525
	c-10.26,9.514-23.168,15.706-31.975,28.348c6.971-0.581,12.59-0.771,18.101-1.649c2.068-0.329,4.168-1.958,5.766-3.501
	c7.666-7.405,15.11-15.044,22.755-22.472c2.826-2.744,5.988-5.144,9.449-7.221c-9.499,11.032-20.552,20.621-29.509,32.493
	c3.306,0,5.768-0.058,8.227,0.015c3.497,0.102,6.429-0.172,9.037-3.441c2.402-3.015,6.098-5.033,9.328-7.344
	c6.258-4.479,9.382-11.344,13.81-17.269c7.081-9.477,15.082-18.294,23.036-27.083c9.311-10.284,18.935-20.29,28.563-30.28
	c1.389-1.44,3.574-2.115,5.885-2.447c-20.278,20.826-41.515,40.532-58.21,64.625c2.142-1.534,4.283-3.065,6.424-4.599
	c0.277,0.263,0.555,0.525,0.833,0.787c-8.959,8.278-17.918,16.557-26.877,24.835c0.167,0.437,0.334,0.874,0.502,1.312
	c7.761-0.936,15.886,2.327,23.179-2.154c1.262,0.432,2.56,1.244,3.871,1.267c13.168,0.228,26.341,0.577,39.504,0.344
	c5.456-0.097,10.865-1.804,16.338-2.268c8.812-0.747,17.665-0.996,26.491-1.597c7.1-0.482,14.193-1.08,21.271-1.804
	c7.084-0.723,14.146-1.647,21.216-2.517c2.765-0.34,5.519-0.767,8.655-1.206c-3.995-6.59-7.791-12.848-11.83-19.509
	c-6.985,5.738-13.812,11.349-20.641,16.959c-0.225-0.211-0.45-0.422-0.677-0.633c0.501-0.755,0.865-1.67,1.524-2.24
	c5.588-4.828,11.307-9.508,16.761-14.48c0.703-0.641,0.68-3.073,0.036-4.04c-4.729-7.117-9.423-14.292-14.661-21.035
	c-9.899-12.743-20.078-25.271-30.287-37.771c-10.104-12.373-20.448-24.548-30.545-36.928c-2.124-2.603-3.621-5.718-5.583-8.883
	c-3.318,3.56-6.488,6.963-9.66,10.365c-0.382-0.323-0.765-0.645-1.146-0.966c1.124-1.966,1.994-4.147,3.44-5.836
	c1.493-1.742,3.546-3.004,5.645-4.714c-2.2-2.537-4.099-4.728-6.555-7.561c-2.785,3.685-5.205,6.887-7.625,10.087
	c-0.666-0.471-1.332-0.942-1.998-1.413c1.808-3.543,3.615-7.086,5.847-11.463c-2.926-2.658-6.555-5.784-9.971-9.13
	c-1.631-1.597-3.08-3.478-4.222-5.458c-3.269-5.665-3.848-5.771-7.635-0.675c-0.347,0.465-0.697,0.927-1.046,1.391
	c-0.441-0.163-0.884-0.325-1.326-0.487c0.901-2.394,1.802-4.785,2.781-7.386c-2.656-2.337-5.483-4.822-8.942-7.861
	c-2.604,3.169-4.916,6.142-7.446,8.914c-0.473,0.519-1.821,0.237-2.767,0.323c0.087-1.086-0.22-2.461,0.33-3.206
	c2.018-2.745,4.318-5.279,6.884-8.336c-1.843-1.949-4.324-4.792-7.106-7.302c-0.466-0.419-2.336,0.442-3.395,1.014
	c-2.453,1.326-4.808,2.837-7.203,4.272c-0.284-0.444-0.57-0.888-0.854-1.332c1.079-0.843,2.184-1.655,3.232-2.533
	c4.66-3.901,5.07-5.497,1.412-10.244c-3.82-4.957-8.058-9.599-12.246-14.257c-0.562-0.625-1.9-0.744-2.885-0.763
	c-4.491-0.083-8.988-0.182-13.476-0.023c-8.258,0.289-16.509,0.756-23.279,1.079c-6.573,5.262-12.308,9.852-18.041,14.441
	c-0.304-0.373-0.608-0.747-0.911-1.121c4.677-4.188,9.354-8.377,14.031-12.566c-0.111-0.344-0.223-0.687-0.335-1.029
	c-4.717,0-9.437-0.088-14.153,0.018c-9.756,0.221-19.537,1.087-29.257,0.628c-6.018-0.284-8.939,2.773-12.008,6.792
	c-0.789,1.032-2.415,1.426-3.657,2.112c0.195-1.315,0.096-2.774,0.656-3.908c0.735-1.486,1.991-2.713,3.268-4.37
	c-8.12,0-15.868,0-23.11,0c-2.355,2.554-4.542,4.926-6.646,7.207c2.73,2,4.963,1.151,7.293-3.095
	c0.695-1.266,2.177-2.099,3.298-3.129c0.441,0.415,0.884,0.831,1.324,1.247c-0.902,1.553-1.804,3.104-3.009,5.177
	c1.061,0.427,2.01,0.953,3.027,1.195c6.429,1.53,12.858,3.067,19.321,4.444c1.936,0.412,3.978,0.39,5.975,0.429
	c1.329,0.026,2.852-0.665,3.966-0.225c7.696,3.048,10.94-2.685,14.587-7.339c2.298-2.934,4.762-5.143,9.124-5.228
	c-4.444,4.685-8.592,9.056-13.215,13.927c11.228,3.379,21.815,7.017,32.643,9.677c8.305,2.041,17.168,1.99,25.323,4.415
	c11.402,3.389,22.563,7.787,33.477,12.555c9.891,4.322,19.277,9.815,26.854,17.758c9.859,10.334,16.371,22.437,18.614,36.67
	c1.542,9.785,2.605,20.002-1.995,28.841c-5.767,11.074-12.295,22.167-20.588,31.364c-5.338,5.921-14.355,8.616-21.885,12.44
	c-5.9,2.996-11.984,5.663-18.105,8.188c-5.979,2.465-12.002,4.919-18.192,6.745c-10.897,3.215-21.911,6.045-32.924,8.852
	c-8.443,2.15-17.347,3.043-25.354,6.23c-13.178,5.246-27.214,6.109-40.764,8.061c-15.58,2.242-31.086,6.082-47.227,5.332
	c-20.172-0.938-40.419-0.311-60.634-0.203c-2.32,0.013-4.66,1.543-6.948,1.436c-3.784-0.179-7.637-0.754-11.275-1.806
	c-10.787-3.117-21.831-3.638-32.938-4.403c-8.59-0.59-17.063-2.784-25.61-4.129c-6.862-1.079-13.862-1.491-20.606-3.046
	c-7.083-1.633-13.919-4.32-20.898-6.43c-1.337-0.403-2.839-0.26-4.265-0.369L217.848,277.196z M460.644,98.958
	c0.045-0.407,0.09-0.814,0.135-1.222c-3.362-0.73-6.725-2.077-10.087-2.08c-11.63-0.008-23.271,0.241-34.89,0.787
	c-14.089,0.662-28.161,2.463-42.238,2.439c-21.16-0.035-42.158,1.243-63.006,4.668c-14.11,2.316-28.196,4.871-42.172,7.879
	c-6.852,1.474-13.315,4.725-20.155,6.296c-15.928,3.659-28.93,12.483-41.788,21.944c-7.673,5.646-16.085,10.279-24.075,15.506
	c-2.528,1.654-5.139,3.436-7.06,5.71c-5.58,6.606-7.318,14.909-9.106,23.052c-1.484,6.752-3.837,13.75-3.258,20.417
	c0.943,10.863,3.673,21.394,9.688,31.182c10.14,16.497,23.883,28.179,41.74,35.021c9.682,3.712,19.55,7.148,29.601,9.635
	c11.098,2.745,22.46,4.536,33.786,6.212c6.888,1.02,13.932,0.952,20.895,1.521c14.473,1.185,28.502,5.198,43.348,4.626
	c24.071-0.929,48.205-0.205,72.312-0.187c1.346,0.001,2.721,0.103,4.032-0.129c7.883-1.396,15.728-3.038,23.635-4.28
	c7.027-1.104,14.17-1.517,21.17-2.753c6.188-1.096,12.23-2.979,18.367-4.386c6.33-1.451,12.739-2.572,19.034-4.151
	c11.762-2.95,23.444-6.216,35.201-9.184c10.318-2.604,20.932-4.226,30.116-10.23c2.59-1.693,5.467-2.983,8.3-4.264
	c8.771-3.961,17.591-7.807,26.366-11.756c1.057-0.475,2.248-1.096,2.881-1.996c4.594-6.541,9.067-13.164,13.562-19.772
	c1.753-2.576,3.489-5.164,5.179-7.782c1.098-1.705,3.078-3.529,2.984-5.205c-0.633-11.268,2.657-22.874-2.309-33.77
	c-3.489-7.652-6.339-15.909-11.312-22.511c-11.342-15.056-28.063-23.099-45.053-29.733c-13.093-5.112-26.703-9.318-41.061-9.812
	c-10.479-0.36-19.677-5.182-29.235-8.705c-3.986-1.471-7.667-2.077-10.702,3.567c0.14-2.589,0.21-3.886,0.28-5.183
	c-3.051-0.263-5.812-0.5-8.69-0.747c-1.412,3.372-3.251,4.959-6.939,2.523c-2.372-1.565-5.024-2.443-8.282-1.336
	c-2.397,0.816-5.295,0.161-7.97,0.161c-0.003-0.435-0.005-0.869-0.006-1.303C456.121,99.404,458.383,99.181,460.644,98.958z
	 M368.563,84.413c-8.605-0.441-15.891-0.761-23.169-1.204c-5.861-0.357-10.754,1.285-14.731,5.857
	c-2.301,2.646-5.17,4.794-7.784,7.166c-0.21-0.216-0.419-0.433-0.629-0.649c2.968-3.734,5.937-7.47,8.98-11.298
	c-13.918-3.493-20.658,5.85-27.642,14.734c-0.42-0.331-0.841-0.662-1.261-0.994c2.934-4.234,5.867-8.468,8.972-12.95
	c-7.626-0.812-11.329,0.518-15.825,4.648c-5.3,4.867-10.827,9.489-16.254,14.217c-0.246-0.223-0.491-0.444-0.737-0.666
	c4.829-5.305,9.658-10.608,14.487-15.911c-4.193-0.949-7.57-1.428-10.751-0.843c-5.27,0.971-10.997-0.147-15.177,5.448
	c-5.044,6.752-11.331,12.576-17.088,18.792c-1.445,1.562-2.925,3.091-4.193,4.429c8.117-1.979,16.05-4.146,24.084-5.822
	c17-3.549,33.934-7.763,51.117-9.973c16.454-2.116,33.182-2.308,49.806-2.772c5.073-0.143,8.877-0.604,11.428-5.625
	c1.068-2.102,3.461-4.25,7.331-2.861c-2.637,2.467-4.769,4.462-7.596,7.107c7.59,0.654,13.951,1.621,17.937-5.316
	c0.72-1.251,1.954-2.311,3.168-3.146c1.297-0.895,2.851-1.417,4.291-2.103c0.239,0.371,0.478,0.742,0.715,1.113
	c-3.058,2.62-6.117,5.24-9.175,7.859c0.178,0.394,0.355,0.786,0.534,1.178c3.616-0.339,7.263-1.139,10.839-0.895
	c3.962,0.271,6.287-1.043,8.067-4.505c1.83-3.562,1.15-5.582-2.816-5.542c-14.664,0.149-29.326,0.498-43.985,0.867
	c-0.819,0.021-1.68,0.824-2.411,1.402c-3.34,2.645-6.641,5.339-9.956,8.015c-0.293-0.355-0.587-0.71-0.881-1.064
	c1.315-1.54,2.474-3.264,3.99-4.571C363.832,87.17,365.761,86.208,368.563,84.413z M418.666,91.625
	c0.13,0.437,0.26,0.875,0.39,1.312c3.211,0,6.421-0.004,9.632,0c7.377,0.009,9.186-1.284,11.97-8.342c-5.632,0-11.386,0-17.147,0
	c-0.389,1.166-0.587,2.731-1.384,3.885C421.264,89.728,419.843,90.591,418.666,91.625z M231.421,88.721
	c-0.465-0.577-0.93-1.154-1.395-1.732c-14.532,8.116-22.843,22.339-32.772,34.974C208.643,110.882,220.032,99.801,231.421,88.721z"
	/>
<path fill-rule="evenodd" clip-rule="evenodd" d="M732.831,182.545c4.878-10.322,9.757-20.643,14.993-31.722
	c-3.258,0-5.332,0.039-7.404-0.006c-14.024-0.307-28.05-0.578-42.069-1.038c-1.332-0.043-3.154-0.98-3.832-2.072
	c-1.959-3.157-3.404-6.631-5.135-9.937c-2.737-5.224,0.23-9.379,2.353-13.791c5.772-12.004,11.52-24.022,17.087-36.121
	c4.114-8.942,6.276-18.687,12.428-26.834c2.913-3.858,3.63-9.302,5.92-13.728c2.095-4.049,4.907-7.735,7.545-11.483
	c0.604-0.859,1.781-1.315,3.438-2.478c-0.117,1.934-0.178,2.939-0.312,5.165c3.741-4.369,6.804-7.955,9.877-11.53
	c0.766-0.89,1.41-2.24,2.374-2.546c7.98-2.517,15.155-7.437,24.014-7.377c25.154,0.167,50.311,0.008,75.466,0.154
	c10.38,0.06,20.758,0.819,31.137,0.811c11.924-0.009,23.847-0.739,35.771-0.765c38.673-0.09,77.347,0,116.02,0.021
	c20.197-4.792,40.737-1.743,61.101-2.735c5.442-0.266,10.817-1.763,16.263-2.194c3.623-0.288,7.33,0.18,10.977,0.546
	c4.688,0.469,9.373,1.062,14.027,1.805c7.892,1.258,14.562,8.828,15.055,17.427c0.614,10.708,1.057,21.432,1.279,32.154
	c0.314,15.105,0.444,30.216,0.467,45.325c0.008,4.915-0.035,9.938-0.999,14.721c-1.475,7.319-7.253,10.82-13.802,13.086
	c-3.604,1.248-7.476,1.823-10.943,3.348c-6.124,2.69-12.516,2.824-18.992,3.268c-6.146,0.422-12.214,1.887-18.353,2.549
	c-5.194,0.561-10.439,0.813-15.665,0.88c-9.926,0.128-19.949,0.915-29.761-0.148c-27.465-2.975-54.971-1.382-82.447-1.499
	c-14.516-0.062-29.029,1.873-43.562,2.429c-15.728,0.601-31.479,0.927-47.217,0.836c-11.606-0.067-23.209-0.96-34.812-1.554
	c-9.903-0.506-19.407,0.374-28.686,4.673c-7.683,3.561-16.179,5.328-23.986,8.661c-14.02,5.984-27.804,12.523-41.657,18.891
	c-2.339,1.076-4.534,2.463-6.796,3.706C733.604,183.141,733.217,182.843,732.831,182.545z M741.723,174.132
	c0.356,0.388,0.713,0.775,1.069,1.163c8.037-3.662,16.068-7.338,24.112-10.982c6.698-3.035,13.329-6.235,20.138-8.999
	c10.035-4.073,20.19-7.856,30.331-11.667c1.127-0.424,2.523-0.443,3.741-0.27c6.575,0.932,13.529-0.464,19.672,3.15
	c20.51,0.012,41.021,0.072,61.531-0.035c2.006-0.011,3.986-1.407,6.016-1.524c2.314-0.133,4.7,0.829,7.003,0.647
	c9.272-0.73,18.52-2.422,27.785-2.489c37.916-0.273,75.835-0.119,113.753-0.019c5.936,0.016,11.894,1.053,17.798,0.752
	c9.287-0.472,18.54-1.639,27.8-2.59c5.433-0.558,10.964-0.787,16.246-2.033c6.555-1.547,13.147-3.452,19.233-6.264
	c3.324-1.535,6.805-4.788,8.144-8.104c2.244-5.555,3.672-11.567,3.101-17.896c-0.668-7.4-0.571-14.867-0.995-22.295
	c-0.882-15.473,2.107-31.089-1.744-46.448c-1.171-4.669-1.251-10.04-3.737-13.844c-3.189-4.879-9.587-6.443-15.112-6.919
	c-9.255-0.796-18.629-0.344-27.949-0.218c-19.162,0.259-38.33,0.431-57.48,1.073c-9.918,0.333-19.793,1.791-29.708,2.383
	c-9.36,0.56-18.747,0.854-28.124,0.883c-7.307,0.023-14.615-0.772-21.923-0.774c-7.457-0.001-14.915,0.784-22.37,0.753
	c-9.828-0.044-19.652-0.716-29.48-0.792c-5.934-0.045-11.873,0.819-17.805,0.766c-16.418-0.151-32.833-0.535-49.247-0.892
	c-11.675-0.254-23.351-0.918-35.02-0.82c-8.587,0.071-17.161,1.108-25.745,1.659c-6.422,0.412-13.029-0.056-19.222,1.341
	c-5.161,1.162-10.843,3.453-14.485,7.068c-4.791,4.755-7.737,11.345-11.643,17.033c-0.866,1.264-2.418,2.059-3.653,3.069
	c-0.263-1.565-0.521-3.131-0.793-4.694c-0.068-0.396-0.183-0.785-0.507-2.152c-1.146,2.02-2.019,3.301-2.641,4.693
	c-4.705,10.534-9.381,21.08-14.028,31.639c-7.51,17.064-15.048,34.116-22.453,51.227c-2.323,5.37,2.728,15.113,8.119,15.605
	c9.007,0.821,18.048,1.78,27.072,1.75c7.026-0.023,14.043-1.495,21.075-2.227c0.715-0.074,1.499,0.522,2.001,0.713
	C748.233,155.948,744.978,165.041,741.723,174.132z"/>
<path fill-rule="evenodd" clip-rule="evenodd" d="M458.493,602.833c-7.689,0.691-15.366,1.63-23.07,1.98
	c-4.571,0.207-9.187-0.507-13.781-0.824c-3.999-0.277-7.991-0.713-11.993-0.846c-11.478-0.383-22.987-0.256-34.435-1.05
	c-18.018-1.247-36.072-2.398-53.716-6.845c-3.259-0.822-6.907,0.016-10.262-0.563c-17.025-2.943-34.184-5.388-50.951-9.435
	c-10.926-2.635-21.152-8.049-31.9-11.585c-9.249-3.042-17.879-7.172-25.808-12.666c-13.444-9.314-24.872-20.477-32.656-35.228
	c-4.099-7.767-5.76-15.816-5.567-24.309c0.299-13.237,5.75-24.664,14.3-34.379c7.414-8.423,16.025-15.521,25.188-22.265
	c14.979-11.022,32.024-16.658,49.161-22.225c12.287-3.992,24.938-7.062,37.614-9.609c17.63-3.543,35.398-6.456,53.177-9.185
	c15.769-2.42,31.631-4.23,47.457-6.277c1.179-0.152,2.392-0.058,3.588-0.058c16.166,0.018,32.341,0.368,48.496-0.047
	c13.188-0.339,26.057,1.595,38.968,3.662c11.825,1.892,23.815,3.03,35.462,5.688c14.852,3.391,29.561,7.567,44.077,12.198
	c8.169,2.605,15.831,6.804,23.716,10.295c7.845,3.473,15.832,6.665,23.483,10.523c8.482,4.276,14.438,11.238,18.879,19.61
	c6.577,12.399,10.188,25.742,11.011,39.567c0.313,5.271-2.329,10.913-4.41,16.068c-1.711,4.237-4.363,8.16-7.01,11.933
	c-2.348,3.348-5.161,6.395-7.951,9.404c-3.639,3.925-7.046,8.229-11.28,11.4c-9.141,6.846-18.662,13.194-28.187,19.507
	c-6.427,4.257-12.873,8.63-19.785,11.968c-5.677,2.742-12.027,4.118-18.121,5.955c-10.197,3.076-20.312,6.553-30.677,8.916
	c-12.854,2.931-25.925,4.912-38.906,7.277c-4.646,0.846-9.309,1.609-13.963,2.411C458.59,603.48,458.542,603.155,458.493,602.833z
	 M423.809,400.139c0.359,2.585-0.902,3.207-3.877,2.083c-10.578-3.999-21.344-3.232-32.237-1.332
	c-7.27,1.269-14.661,1.843-21.997,2.735c-3.666,0.446-7.345,0.81-10.992,1.38c-8.125,1.269-16.234,2.641-24.349,3.978
	c-10.759,1.772-21.566,3.303-32.264,5.391c-12.717,2.485-25.757,4.254-37.906,8.49c-18.008,6.277-37.168,10.385-52.27,23.427
	c-7.279,6.287-15.944,11.251-22.185,18.387c-7.447,8.516-14.229,17.797-16.945,29.577c-1.666,7.227-1.713,14.102,0.488,20.682
	c4.04,12.08,11.338,22.611,20.5,31.183c8.927,8.354,18.747,16.025,30.563,20.356c3.87,1.418,7.744,2.826,11.587,4.316
	c8.413,3.264,16.584,7.445,25.26,9.664c12.548,3.207,25.45,5.047,38.213,7.401c11.608,2.143,23.168,4.72,34.866,6.152
	c14.487,1.774,29.177,1.96,43.628,3.941c15.389,2.109,30.767,1.344,46.157,1.74c4.431,0.114,8.847,0.845,13.27,1.283
	c0.864,0.086,1.74,0.247,2.597,0.183c6.063-0.464,12.125-0.942,18.182-1.484c5.021-0.451,10.051-0.86,15.044-1.53
	c7.33-0.981,14.696-1.86,21.928-3.36c11.289-2.342,22.533-4.947,33.687-7.862c7.458-1.949,14.588-5.327,22.112-6.819
	c10.741-2.126,18.973-8.97,28.181-13.832c8.582-4.533,16.145-10.992,24.177-16.572c2.687-1.866,6.019-3.146,8.056-5.544
	c7.297-8.588,16.51-15.712,21.17-26.362c2.286-5.225,5.463-10.604,5.742-16.041c0.507-9.869-0.636-19.885-4.571-29.231
	c-1.845-4.382-4.01-8.626-5.971-12.959c-3.239-7.157-8.455-12.887-15.138-16.44c-11.273-5.992-23.075-11.003-34.718-16.288
	c-6.073-2.759-12.107-5.807-18.466-7.683c-9.8-2.891-19.845-4.965-29.821-7.235c-7.192-1.635-14.419-3.145-21.675-4.468
	c-3.191-0.58-6.546-0.275-9.733-0.865c-10.992-2.029-21.862-5.204-32.935-6.19C448.932,399.298,436.523,400.139,423.809,400.139z"/>
<path fill-rule="evenodd" clip-rule="evenodd" d="M414.714,633.275c5.151,0.524,10.409,4.662,10.934,9.225
	c0.914,7.937-2.136,12.073-9.257,14.41c-1.261,0.413-2.639,0.509-3.854,1.015c-9.328,3.885-18.228-3.82-19.92-11.705
	c-0.811-3.774,2.808-9.612,6.956-10.488c2.583-0.545,5.382,0.002,8.014-0.399C410.011,634.962,412.342,633.985,414.714,633.275z
	 M422.092,646.073c0.438-5.35-5.085-10.959-11.271-8.777c-3.061,1.077-6.004,2.507-9.098,3.463c-4.298,1.329-6,4.277-3.371,7.914
	c1.958,2.71,5.351,6.344,7.939,6.216c4.973-0.245,10.799-0.452,14.43-5.21C421.469,648.7,421.65,647.285,422.092,646.073z"/>
<path fill-rule="evenodd" clip-rule="evenodd" d="M366.646,630.906c-6.555,0-11.899,0.105-17.231-0.097
	c-0.99-0.037-1.934-1.314-2.898-2.021c0.813-0.781,1.521-1.752,2.472-2.287c0.842-0.475,2.133-0.91,2.921-0.598
	c6.131,2.436,11.706,0.176,17.608-1.262c6.806-1.656,13.919-2.057,21.97-3.146c-1.198,2.442-1.871,3.814-2.432,4.961
	c-6.168,0.912-13.38-1.42-17.622,3.953c-3.938,4.989-6.082,11.393-9.037,17.162c-0.568,1.109-1.031,2.402-1.919,3.18
	c-0.823,0.72-2.152,0.865-3.257,1.264c0.011-1.467-0.484-3.197,0.118-4.357C360.243,642.053,363.442,636.604,366.646,630.906z"/>
<path fill-rule="evenodd" clip-rule="evenodd" d="M161.634,237.889c-6.233,5.867-11.895,10.846-17.151,16.22
	c-9.999,10.225-19.649,20.788-29.665,30.995c-7.832,7.981-16.078,15.557-23.979,23.473c-4.111,4.121-7.858,8.603-11.81,12.883
	c-0.491,0.532-1.233,0.833-2.466,0.547c3.165-3.767,6.177-7.674,9.526-11.27c6.756-7.252,13.655-14.373,20.566-21.48
	c12.235-12.582,24.473-25.162,36.815-37.64c4.127-4.173,8.477-8.143,12.941-11.95C157.616,238.639,159.612,238.54,161.634,237.889z"
	/>
<path fill-rule="evenodd" clip-rule="evenodd" d="M458.812,651.092c-3.65,2.573-5.143,0.863-6.784-1.694
	c-3.273-5.104-6.604-10.21-10.436-14.886c-1.075-1.312-4.139-1.822-5.987-1.391c-1.305,0.306-3.181,3.036-2.921,4.3
	c0.958,4.684,2.672,9.212,4.172,13.778c0.17,0.513,1.138,0.885,1.131,1.311c-0.022,1.131-0.376,2.256-0.597,3.382
	c-1.113-0.394-2.884-0.482-3.232-1.231c-1.941-4.17-3.669-8.451-5.219-12.784c-1.939-5.422-0.974-8.209,3.608-11.616
	c4.156-3.092,8.728-3.001,12.63,1.665C450.155,637.875,454.24,644.574,458.812,651.092z"/>
<path fill-rule="evenodd" clip-rule="evenodd" d="M75.031,292.572c24.683-25.7,50.289-50.449,76.47-74.604
	c0.509,0.502,1.018,1.003,1.526,1.504c-4.561,4.546-9.019,9.199-13.708,13.609c-6.758,6.355-13.793,12.418-20.513,18.814
	c-10.368,9.869-20.571,19.911-30.838,29.887c-4.026,3.913-8.035,7.844-12.051,11.766C75.623,293.221,75.327,292.896,75.031,292.572z
	"/>
<path fill-rule="evenodd" clip-rule="evenodd" d="M254.805,92.733c-20.732,13.966-40.25,28.635-57.166,46.5
	c9.754-12.089,20.261-23.292,33.166-32.116c5.339-3.651,9.999-8.293,14.988-12.461C248.218,92.629,250.631,90.413,254.805,92.733z"
	/>
<path fill-rule="evenodd" clip-rule="evenodd" d="M178.389,263.073c-9.968,8.528-20.283,16.688-29.805,25.689
	c-9.579,9.053-18.369,18.941-27.973,28.291c2.414-3.457,4.348-7.409,7.325-10.281c12.093-11.664,24.545-22.956,36.773-34.482
	c2.913-2.744,5.379-5.961,8.245-8.762c1.091-1.066,2.732-1.571,4.122-2.332C177.514,261.821,177.951,262.447,178.389,263.073z"/>
<path fill-rule="evenodd" clip-rule="evenodd" d="M613.213,275.262c2.552-3.363,4.902-6.908,7.695-10.059
	c8.485-9.568,17.178-18.955,25.722-28.473c6.592-7.345,12.978-14.878,19.711-22.088c1.269-1.356,3.741-1.588,6.777-2.777
	c-20.549,21.929-40.081,42.771-59.612,63.612C613.408,275.407,613.31,275.334,613.213,275.262z"/>
<path fill-rule="evenodd" clip-rule="evenodd" d="M390.781,639.423c-8.212,0.896-10.36,3.263-12.246,10.959
	c-0.447,1.825-1.871,3.411-2.846,5.108c-0.6-0.174-1.199-0.346-1.799-0.52c-0.073-1.599-0.53-3.296-0.149-4.778
	c1.316-5.121,2.807-10.208,4.509-15.214c0.404-1.187,1.751-2.419,2.939-2.824c0.628-0.214,1.83,1.332,2.805,2.039
	c0.903,0.653,1.882,1.202,2.766,1.88C387.861,636.917,388.897,637.846,390.781,639.423z"/>
<path fill-rule="evenodd" clip-rule="evenodd" d="M675.388,374.694c-2.053-0.293-4.024,0.008-5.162-0.829
	c-8.555-6.293-18.225-9.232-28.634-10.308c-2.493-0.258-4.937-1.013-8.012-1.669C639.703,357.899,672.371,367.167,675.388,374.694z"
	/>
<path fill-rule="evenodd" clip-rule="evenodd" d="M190.423,276.922c-12.402,10.552-23.895,21.89-33.034,35.974
	c0.963-2.376,1.594-4.961,2.944-7.09c6.68-10.531,15.274-19.451,24.334-27.917c1.312-1.225,3.396-1.621,5.124-2.402
	C190.002,275.966,190.212,276.444,190.423,276.922z"/>
<path fill-rule="evenodd" clip-rule="evenodd" d="M761.107,420.688c-1.077-1.004-2.153-2.008-3.612-3.369
	c7.932,0.733,11.586,6.734,16.055,11.358c2.539,2.627,4.606,5.837,6.288,9.094c0.589,1.139-0.613,3.204-0.997,4.845
	c-1.022-0.955-2.24-1.772-3.035-2.891c-4.332-6.1-8.538-12.288-12.87-18.39c-0.342-0.482-1.303-0.524-1.977-0.771L761.107,420.688z"
	/>
<path fill-rule="evenodd" clip-rule="evenodd" d="M722.328,394.757c13.348,2.897,23.105,10.64,29.534,23.323
	c-1.373-0.592-3.342-0.794-4.021-1.838C741.472,406.461,731.763,400.833,722.328,394.757z"/>
<path fill-rule="evenodd" clip-rule="evenodd" d="M682.404,230.891c-18.764,10.643-29.328,28.514-43.859,42.662
	c0.962-1.553,1.755-3.244,2.911-4.636c5.028-6.046,10.012-12.14,15.297-17.959c6.038-6.649,12.345-13.06,18.611-19.498
	C677.11,229.666,679.095,227.904,682.404,230.891z"/>
<path fill-rule="evenodd" clip-rule="evenodd" d="M217.744,277.115c-5.856,5.487-11.915,10.778-17.51,16.521
	c-5.604,5.751-10.743,11.953-15.981,17.841c-0.836-4.438,3.124-7.087,5.58-9.895c6.923-7.914,14.364-15.392,21.89-22.745
	c1.317-1.287,4.033-1.143,6.113-1.649C217.848,277.196,217.744,277.115,217.744,277.115z"/>
<path fill-rule="evenodd" clip-rule="evenodd" d="M61.402,445.012c-9.606,7.283-18.224,14.913-20.854,27.674
	c-3.21-2.039-2.518-5.1-1.226-7.533c3.961-7.46,9.429-13.789,16.27-18.756C57.08,445.317,59.442,445.443,61.402,445.012z"/>
<path fill-rule="evenodd" clip-rule="evenodd" d="M511.117,335.522c0.956-0.256,1.979-0.877,2.855-0.713
	c10.99,2.071,22.006,4.055,32.898,6.563c2.401,0.553,4.349,3.069,6.237,5.114C540.054,339.233,525.15,340.344,511.117,335.522z"/>
<path fill-rule="evenodd" clip-rule="evenodd" d="M655.294,279.312c4.961-11.856,31.729-37.068,38.765-36.045
	C678.898,253.489,666.544,265.84,655.294,279.312z"/>
<path fill-rule="evenodd" clip-rule="evenodd" d="M669.373,286.476c3.609-7.909,29.694-31.721,35.686-31.79
	C692.862,265.551,681.301,275.851,669.373,286.476z"/>
<path fill-rule="evenodd" clip-rule="evenodd" d="M230.257,288.75c-9.436,8.248-19.134,16.264-26.365,27.171
	c0.496-1.652,0.545-3.676,1.561-4.895c5.87-7.041,11.859-13.991,18.075-20.727c1.327-1.438,3.753-1.862,5.673-2.754
	C229.553,287.948,229.906,288.348,230.257,288.75z"/>
<path fill-rule="evenodd" clip-rule="evenodd" d="M102.365,411.02c-7.87,5.877-19.763,6.044-24.426,16.501
	c-2.608-2.025-3.005-3.669-0.498-5.708c2.458-2.001,5.499-3.289,8.303-4.854c3.961-2.211,7.889-4.493,11.944-6.519
	c1.217-0.607,2.811-0.46,4.232-0.658C102.068,410.194,102.216,410.606,102.365,411.02z"/>
<path fill-rule="evenodd" clip-rule="evenodd" d="M207.207,368.456c-11.018-0.938-20.809,5.242-31.463,6.412
	c-0.13-0.732-0.26-1.467-0.39-2.198c10.663-1.44,20.438-7.65,31.592-6.443C207.033,366.969,207.12,367.712,207.207,368.456z"/>
<path fill-rule="evenodd" clip-rule="evenodd" d="M196.64,653.186c-9.5-1.004-20.191,2.66-28.083-5.219
	c0.134-0.582,0.268-1.165,0.402-1.748C178.185,648.543,187.412,650.865,196.64,653.186z"/>
<path fill-rule="evenodd" clip-rule="evenodd" d="M673.112,624.344c5.996-7.819,14.582-11.292,24.429-12.677
	c-7.896,4.519-15.79,9.037-23.687,13.556C673.607,624.93,673.36,624.637,673.112,624.344z"/>
<path fill-rule="evenodd" clip-rule="evenodd" d="M262.626,353.206c-9.564,2.291-19.128,4.582-28.693,6.873
	c-0.148-0.717-0.296-1.434-0.444-2.149c9.346-3.229,18.95-5.304,28.811-6.232C262.409,352.2,262.518,352.704,262.626,353.206z"/>
<path fill-rule="evenodd" clip-rule="evenodd" d="M385.167,680.015c-7.594,0.63-15.181,1.392-22.788,1.743
	c-1.069,0.049-2.23-1.913-3.349-2.943c1.014-0.654,2.086-1.947,3.033-1.861c7.685,0.696,15.347,1.65,23.015,2.526
	C385.108,679.659,385.137,679.836,385.167,680.015z"/>
<path fill-rule="evenodd" clip-rule="evenodd" d="M317.561,345.043c-10.229,1.592-20.458,3.185-30.686,4.776
	c-0.079-0.503-0.157-1.005-0.235-1.507c7.34-1.608,14.642-3.443,22.04-4.712c2.906-0.498,6.028,0.271,9.052,0.464
	C317.675,344.391,317.618,344.717,317.561,345.043z"/>
<path fill-rule="evenodd" clip-rule="evenodd" d="M793.567,502.616c-2.348-8.617-0.229-17.51-1.188-26.213
	c0.636-0.044,1.271-0.09,1.906-0.134c0.521,8.713,1.044,17.427,1.566,26.14C795.091,502.477,794.329,502.545,793.567,502.616z"/>
<path fill-rule="evenodd" clip-rule="evenodd" d="M148.124,388.519c-8.632,1.221-15.411,5.84-22.021,12.349
	C127.352,392.578,138.143,386.59,148.124,388.519z"/>
<path fill-rule="evenodd" clip-rule="evenodd" d="M246.728,291.086c-6.88,6.492-13.807,13.026-20.652,19.484
	c0.035-0.302-0.217-1.725,0.363-2.587C233.095,298.107,242.716,290.222,246.728,291.086z"/>
<path fill-rule="evenodd" clip-rule="evenodd" d="M712.912,391.972c-7.071-4.833-14.145-9.667-21.322-14.571
	c10.297-0.84,15.066,8.192,22.289,12.82C713.558,390.805,713.235,391.388,712.912,391.972z"/>
<path fill-rule="evenodd" clip-rule="evenodd" d="M610.096,353.17c-5.45-1.49-10.83-3.359-16.369-4.366
	c-5.572-1.013-11.302-1.165-16.864-2.394c11.581-0.49,23.395-2.197,33.682,4.955C610.395,351.968,610.245,352.57,610.096,353.17z"/>
<path fill-rule="evenodd" clip-rule="evenodd" d="M783.004,540.065c0.169,5.312-7.571,15.67-14.047,18.862
	c0.084-1.542-0.315-3.106,0.285-3.796C773.616,550.12,778.192,545.284,783.004,540.065z"/>
<path fill-rule="evenodd" clip-rule="evenodd" d="M30.999,535.371c1.684,8.818,3.128,16.378,4.624,24.211
	C31.448,558.053,27.714,540.805,30.999,535.371z"/>
<path fill-rule="evenodd" clip-rule="evenodd" d="M238.888,663.524c8.104,1.09,16.121,2.167,23.977,3.224
	C254.811,670.573,240.008,668.831,238.888,663.524z"/>
<path fill-rule="evenodd" clip-rule="evenodd" d="M54.522,581.094c5.043,5.719,9.782,11.09,14.178,16.073
	C58.617,593.837,51.808,586.734,54.522,581.094z"/>
<path fill-rule="evenodd" clip-rule="evenodd" d="M317.123,671.901c7.482,1.028,14.412,1.981,21.342,2.935
	c0.016,0.321,0.032,0.642,0.047,0.963c-6.607,0.288-13.226,0.904-19.818,0.704C315.907,676.418,315.234,674.042,317.123,671.901z"/>
<path fill-rule="evenodd" clip-rule="evenodd" d="M370.689,338.104c-0.723,3.35-4.421,4.944-7.521,3.123
	c-4.763-2.801-9.002-0.244-13.454,0.492c-1.237,0.204-2.503,0.391-3.74,0.321c-0.265-0.015-0.465-1.18-0.694-1.813
	c1.192-0.404,2.377-1.129,3.578-1.158c5.851-0.146,11.708-0.065,17.561-0.164C367.682,338.882,368.937,338.447,370.689,338.104z"/>
<path fill-rule="evenodd" clip-rule="evenodd" d="M472.493,341.195c-8.22-1.039-16.144-2.04-24.068-3.042
	c0.011-0.379,0.02-0.757,0.029-1.136c0.911-0.191,1.822-0.538,2.736-0.549c4.834-0.05,9.669-0.037,14.503,0.001
	C468.874,336.497,471.482,337.429,472.493,341.195z"/>
<path fill-rule="evenodd" clip-rule="evenodd" d="M709.488,601.29c6.498-3.2,12.998-6.403,19.496-9.604
	c0.301,0.524,0.601,1.047,0.902,1.572c-5.821,3.623-11.608,7.302-17.519,10.772c-0.479,0.28-1.786-0.848-2.709-1.319
	C709.603,602.238,709.545,601.764,709.488,601.29z"/>
<path fill-rule="evenodd" clip-rule="evenodd" d="M633.757,207.528c7.562-7.623,15.125-15.244,22.687-22.867
	c0.589,0.594,1.178,1.187,1.766,1.779c-7.757,7.421-15.514,14.842-23.271,22.262C634.545,208.311,634.15,207.919,633.757,207.528z"
	/>
<path fill-rule="evenodd" clip-rule="evenodd" d="M532.933,661.39c-5.498,2.394-11.527,5.052-17.602,7.605
	c-0.626,0.263-1.521-0.112-2.291-0.191c0.124-0.649,0.018-1.601,0.408-1.9C518.118,663.31,526.594,658.672,532.933,661.39z"/>
<path fill-rule="evenodd" clip-rule="evenodd" d="M29.253,493.903c-1.784,6.894-3.323,12.84-4.891,18.899
	C20.345,509.052,22.614,498.985,29.253,493.903z"/>
<path fill-rule="evenodd" clip-rule="evenodd" d="M483.892,668.03c-3.654,3.106-18.174,6.154-21.246,4.303
	C469.451,668.807,476.155,668.096,483.892,668.03z"/>
<path fill-rule="evenodd" clip-rule="evenodd" d="M431.937,340.338c-8.768,0-17.085,0-25.366,0
	C408.324,337.113,428.365,336.825,431.937,340.338z"/>
<path fill-rule="evenodd" clip-rule="evenodd" d="M791.829,470.805c-4.348-5.683-9.272-10.99-9.664-18.596
	C785.437,458.419,791.876,462.944,791.829,470.805z"/>
<path fill-rule="evenodd" clip-rule="evenodd" d="M666.397,624.25c-5.226,3.669-10.45,7.341-16.307,11.456
	c-0.141-1.124-0.819-2.972-0.35-3.335C654.747,628.5,659.511,624.009,666.397,624.25z"/>
<path fill-rule="evenodd" clip-rule="evenodd" d="M760.009,570.309c-4.333,4.076-8.645,8.176-13.045,12.178
	c-0.3,0.272-1.506,0.023-1.859-0.371c-0.335-0.374-0.396-1.572-0.076-1.866c4.364-4.013,8.816-7.932,13.246-11.872
	C758.853,569.021,759.431,569.665,760.009,570.309z"/>
<path fill-rule="evenodd" clip-rule="evenodd" d="M788.146,531.661c-1.859-6.027,1.053-11.132,2.582-16.807
	C794.266,519.655,792.668,529.604,788.146,531.661z"/>
<path fill-rule="evenodd" clip-rule="evenodd" d="M582.238,650.124c-6.838,3.003-13.628,5.984-20.617,9.054
	C561.907,654.197,576.183,648.243,582.238,650.124z"/>
<path fill-rule="evenodd" clip-rule="evenodd" d="M427.455,677.499c-4.516,0.609-9.023,1.316-13.557,1.739
	c-0.867,0.081-1.838-0.962-2.762-1.486c0.796-0.876,1.61-2.518,2.386-2.5c4.645,0.104,9.281,0.593,13.92,0.952
	C427.446,676.635,427.45,677.067,427.455,677.499z"/>
<path fill-rule="evenodd" clip-rule="evenodd" d="M490.688,336.962c6.998,0.85,13.997,1.697,20.996,2.545
	c-0.041,0.518-0.08,1.035-0.12,1.552c-7.104-0.459-14.209-0.916-21.313-1.375C490.396,338.778,490.542,337.87,490.688,336.962z"/>
<path fill-rule="evenodd" clip-rule="evenodd" d="M102.557,619.245c3.755,3.23,7.51,6.461,11.384,9.794
	c-5.219,0.876-8.468-2.476-11.815-5.214c-0.936-0.765-0.811-2.828-1.172-4.295C101.488,619.434,102.022,619.339,102.557,619.245z"/>
<path fill-rule="evenodd" clip-rule="evenodd" d="M575.001,94.326c-7.062,5.701-14.123,11.403-21.185,17.106
	c-0.334-0.299-0.665-0.597-0.998-0.895c2.791-2.812,5.469-5.75,8.406-8.399c2.96-2.673,6.11-5.148,9.318-7.52
	c1.072-0.793,2.578-0.998,3.887-1.472C574.619,93.54,574.811,93.933,575.001,94.326z"/>
<path fill-rule="evenodd" clip-rule="evenodd" d="M559.982,89.111c-6.294,6.1-14.173,10.18-20.913,15.711
	c-0.36-0.459-0.72-0.918-1.08-1.378c6.883-5.352,13.766-10.701,20.648-16.053C559.086,87.964,559.535,88.538,559.982,89.111z"/>
<path fill-rule="evenodd" clip-rule="evenodd" d="M298.905,674.144c-3.654-0.356-7.327-0.593-10.946-1.167
	c-0.788-0.125-1.386-1.451-2.071-2.226c1.297-0.698,2.858-2.246,3.842-1.938c3.304,1.029,6.401,2.723,9.579,4.162
	C299.174,673.365,299.04,673.754,298.905,674.144z"/>
<path fill-rule="evenodd" clip-rule="evenodd" d="M224.374,659.995c-4.505,3.809-11.369,3.01-14.887-2.852
	C215.079,658.213,219.633,659.086,224.374,659.995z"/>
<path fill-rule="evenodd" clip-rule="evenodd" d="M75.531,607.111c3.833,4.129,6.611,7.122,10.142,10.927
	c-5.488,0.062-7.654-3.567-10.411-5.906C74.682,611.639,75.348,609.676,75.531,607.111z"/>
<path fill-rule="evenodd" clip-rule="evenodd" d="M635.907,189.831c4.129-4.43,8.258-8.859,12.387-13.291
	c0.497,0.475,0.994,0.949,1.491,1.425c-3.419,5.134-8.537,8.599-12.656,13.044C636.722,190.616,636.314,190.224,635.907,189.831z"/>
<path fill-rule="evenodd" clip-rule="evenodd" d="M158.442,644.286c-4.094-1.367-8.188-2.733-12.915-4.312
	c4.236-3.591,6.208-2.966,13.409,3.084C158.772,643.468,158.607,643.877,158.442,644.286z"/>
<path fill-rule="evenodd" clip-rule="evenodd" d="M608.978,648.379c0.227-5.748,6.207-9.418,12.992-8.26
	C617.571,642.917,613.526,645.488,608.978,648.379z"/>
<path fill-rule="evenodd" clip-rule="evenodd" d="M760.959,420.565c1.606,3.398,3.213,6.798,5.148,10.894
	c-3.997-1.102-6.198-3.559-7.358-6.591c-0.364-0.953,1.508-2.762,2.357-4.18C761.107,420.688,760.959,420.565,760.959,420.565z"/>
<path fill-rule="evenodd" clip-rule="evenodd" d="M633.37,179.293c0.937-5.811,4.281-9.641,9.151-12.212
	c0.379,0.325,0.758,0.649,1.138,0.974C640.229,171.8,636.8,175.546,633.37,179.293z"/>
<path fill-rule="evenodd" clip-rule="evenodd" d="M519.794,104.202c5.031-4.769,8.594-11.174,16.805-12.42
	c-5.288,4.408-10.575,8.815-15.862,13.224C520.422,104.737,520.108,104.469,519.794,104.202z"/>
<path fill-rule="evenodd" clip-rule="evenodd" d="M251.393,305.678c2.972-3.81,5.943-7.617,8.914-11.426
	c0.387,0.295,0.772,0.59,1.159,0.887c-0.898,5.385-5.956,7.663-8.845,11.561C252.211,306.359,251.802,306.018,251.393,305.678z"/>
<path fill-rule="evenodd" clip-rule="evenodd" d="M672.974,219.904c2.592-3.183,3.566-8.181,8.984-8.192
	c0.33,0.362,0.661,0.725,0.992,1.088c-3.06,2.638-6.119,5.275-9.178,7.912C673.506,220.442,673.239,220.174,672.974,219.904z"/>
<path fill-rule="evenodd" clip-rule="evenodd" d="M482.067,85.574c-1.791,2.298-3.585,4.595-5.377,6.892
	c-0.484-0.482-0.969-0.963-1.454-1.445c1.96-2.193,3.918-4.387,5.878-6.582C481.433,84.817,481.75,85.196,482.067,85.574z"/>
<path fill-rule="evenodd" clip-rule="evenodd" fill="#FFFFFF" d="M368.563,84.413c-2.803,1.795-4.732,2.758-6.315,4.122
	c-1.517,1.308-2.675,3.031-3.99,4.571c0.294,0.354,0.587,0.709,0.881,1.064c3.315-2.676,6.615-5.37,9.956-8.015
	c0.731-0.578,1.592-1.381,2.411-1.402c14.66-0.369,29.322-0.718,43.985-0.867c3.966-0.04,4.646,1.979,2.816,5.542
	c-1.78,3.462-4.104,4.776-8.067,4.505c-3.576-0.244-7.224,0.556-10.839,0.895c-0.178-0.392-0.355-0.784-0.534-1.178
	c3.059-2.619,6.117-5.239,9.175-7.859c-0.238-0.371-0.477-0.742-0.715-1.113c-1.44,0.686-2.994,1.208-4.291,2.103
	c-1.214,0.836-2.448,1.896-3.168,3.146c-3.986,6.938-10.347,5.971-17.937,5.316c2.827-2.646,4.959-4.641,7.596-7.107
	c-3.87-1.389-6.263,0.76-7.331,2.861c-2.551,5.021-6.355,5.482-11.428,5.625c-16.624,0.465-33.352,0.656-49.806,2.772
	c-17.184,2.21-34.118,6.424-51.117,9.973c-8.035,1.677-15.967,3.843-24.084,5.822c1.268-1.338,2.748-2.867,4.193-4.429
	c5.757-6.216,12.044-12.04,17.088-18.792c4.181-5.596,9.908-4.478,15.177-5.448c3.181-0.585,6.558-0.106,10.751,0.843
	c-4.83,5.303-9.658,10.606-14.487,15.911c0.246,0.222,0.491,0.443,0.737,0.666c5.428-4.728,10.955-9.35,16.254-14.217
	c4.496-4.131,8.199-5.461,15.825-4.648c-3.105,4.482-6.039,8.716-8.972,12.95c0.42,0.332,0.841,0.663,1.261,0.994
	c6.984-8.885,13.723-18.228,27.642-14.734c-3.043,3.828-6.012,7.563-8.98,11.298c0.209,0.217,0.419,0.434,0.629,0.649
	c2.614-2.372,5.483-4.521,7.784-7.166c3.978-4.572,8.871-6.215,14.731-5.857C352.673,83.652,359.958,83.971,368.563,84.413z
	 M353.342,85.528c-4.923-1.085-10.185,3.656-10.896,9.254C346.005,91.759,349.562,88.739,353.342,85.528z"/>
<path fill-rule="evenodd" clip-rule="evenodd" fill="#FFFFFF" d="M418.666,91.625c1.177-1.033,2.598-1.896,3.461-3.146
	c0.797-1.153,0.995-2.719,1.384-3.885c5.762,0,11.516,0,17.147,0c-2.784,7.058-4.593,8.351-11.97,8.342
	c-3.211-0.004-6.421,0-9.632,0C418.926,92.5,418.796,92.061,418.666,91.625z"/>
<path fill-rule="evenodd" clip-rule="evenodd" fill="#FFFFFF" d="M231.421,88.721c-11.389,11.08-22.778,22.161-34.167,33.241
	c9.93-12.635,18.241-26.857,32.772-34.974C230.491,87.567,230.956,88.144,231.421,88.721z"/>
<path fill-rule="evenodd" clip-rule="evenodd" fill="#FFFFFF" d="M741.723,174.132c3.255-9.092,6.511-18.185,9.875-27.579
	c-0.502-0.19-1.286-0.787-2.001-0.713c-7.032,0.731-14.049,2.203-21.075,2.227c-9.024,0.03-18.065-0.929-27.072-1.75
	c-5.392-0.492-10.442-10.235-8.119-15.605c7.405-17.11,14.943-34.162,22.453-51.227c4.647-10.559,9.323-21.104,14.028-31.639
	c0.622-1.393,1.494-2.674,2.641-4.693c0.324,1.367,0.438,1.756,0.507,2.152c0.272,1.563,0.53,3.129,0.793,4.694
	c1.235-1.011,2.787-1.806,3.653-3.069c3.905-5.688,6.852-12.278,11.643-17.033c3.643-3.615,9.324-5.906,14.485-7.068
	c6.192-1.396,12.8-0.929,19.222-1.341c8.584-0.551,17.158-1.588,25.745-1.659c11.669-0.098,23.345,0.566,35.02,0.82
	c16.414,0.356,32.829,0.74,49.247,0.892c5.932,0.054,11.871-0.811,17.805-0.766c9.828,0.076,19.652,0.748,29.48,0.792
	c7.455,0.031,14.913-0.754,22.37-0.753c7.308,0.002,14.616,0.798,21.923,0.774c9.377-0.028,18.764-0.323,28.124-0.883
	c9.915-0.592,19.79-2.05,29.708-2.383c19.15-0.643,38.318-0.814,57.48-1.073c9.32-0.126,18.694-0.578,27.949,0.218
	c5.525,0.476,11.923,2.04,15.112,6.919c2.486,3.804,2.566,9.175,3.737,13.844c3.852,15.359,0.862,30.976,1.744,46.448
	c0.424,7.428,0.327,14.895,0.995,22.295c0.571,6.328-0.856,12.341-3.101,17.896c-1.339,3.316-4.819,6.569-8.144,8.104
	c-6.086,2.812-12.679,4.717-19.233,6.264c-5.282,1.246-10.813,1.476-16.246,2.033c-9.26,0.951-18.513,2.118-27.8,2.59
	c-5.904,0.301-11.862-0.736-17.798-0.752c-37.918-0.101-75.837-0.255-113.753,0.019c-9.266,0.067-18.513,1.759-27.785,2.489
	c-2.303,0.182-4.688-0.78-7.003-0.647c-2.029,0.117-4.01,1.514-6.016,1.524c-20.51,0.107-41.021,0.047-61.531,0.035
	c-6.143-3.614-13.097-2.219-19.672-3.15c-1.218-0.174-2.614-0.154-3.741,0.27c-10.141,3.811-20.296,7.594-30.331,11.667
	c-6.809,2.764-13.439,5.964-20.138,8.999c-8.044,3.645-16.075,7.32-24.112,10.982C742.436,174.908,742.079,174.52,741.723,174.132z
	 M893.748,49.821c-0.513,2.996-1.131,5.981-1.456,8.998c-0.075,0.702,0.853,1.512,1.318,2.271c0.696-0.528,1.781-0.916,2.03-1.606
	c2.975-8.244,5.826-16.533,8.763-24.961c-4.604-1.199-4.549,2.965-5.847,5.376c-1.768,3.284-3.301,6.694-4.934,10.052
	c0.548-1.89,0.403-3.241-2.119-3.127c-2.088,0.094-4.183,0.019-6.275-0.002c-2.312-0.022-3.394-1.085-2.604-3.409
	c1.136-3.338,2.554-6.594,3.492-9.981c0.385-1.388-0.168-3.032-0.294-4.562c-0.562,0.004-1.123,0.008-1.685,0.01
	c-2.706,9.053-7.515,17.458-7.798,27.33c6.788,2.117,4.256-3.865,5.295-6.327c2.157-0.458,4.019-1.179,5.871-1.159
	C889.585,48.745,891.657,49.436,893.748,49.821z M780.188,79.744c-0.439,0.075-0.876,0.165-1.317,0.225
	c-5.07,0.671-7.422,4.34-6.103,9.526c0.935,3.671,4.832,5.211,9.209,4.126c4.597-1.139,7.333-4.185,9.384-8.083
	c1.457-2.768-0.736-8.348-3.699-9.762c-2.92-1.396-5.659,0.077-7.492,4.026L780.188,79.744z M981.563,74.127l-0.013-0.07
	c-0.331,0.91-0.677,1.813-0.99,2.729c-0.922,2.689,0.209,4.601,2.781,4.962c5.138,0.722,9.938-0.181,13.975-3.931
	c2.232-2.074,2.024-3.575-0.196-5.43c-5.139-4.292-10.613-3.52-16.135-1.16c-2.298,0.983-3.861,1.813-6.776,0.333
	c-6.382-3.242-6.62-2.773-10.033,3.594c-0.188,0.354-0.368,0.712-0.23,0.444c-2.536-1.79-5.219-5.226-7.551-5.001
	c-4.438,0.425-9.119,2.287-12.836,4.82c-2.441,1.664-5.553,4.795-2.899,9.079c2.152,3.474,4.944,4.533,9.982,2.708
	c3.649-1.321,7.13-3.109,11.178-4.908c2.639,2.356,4.849,1.733,6.492-2.411c0.749-1.886,2.555-3.353,3.88-5.009
	c-0.164,6.102,1.216,11.099,7.419,12.206c4.771,0.854,9.818,0.17,14.742,0.17c0.007-0.729,0.014-1.457,0.02-2.186
	c-3.557-0.146-7.115-0.452-10.669-0.395c-3.527,0.057-6.304-1.033-7.008-4.654C976,76.447,979.032,75.357,981.563,74.127z
	 M916.312,76.532c-4.073-5.233-10.12-6.824-15.971-4.634c-1.263,0.472-3.049,0.359-4.318-0.158c-3.314-1.35-7.767,0.242-9.123,3.508
	c-0.666,1.605-1.689,3.08-2.227,4.721c-0.818,2.501-1.355,5.096-2.244,8.553c4.84-2.122,4.685-2.195,7.086-7.306
	c0.985-2.099,2.804-3.806,4.244-5.69c1.48,1.603,2.973,3.193,4.425,4.82c0.157,0.176,0.091,0.552,0.064,0.348
	c-1.06,1.471-1.906,2.646-2.755,3.823c6.265-0.854,12.415,6.956,17.892-0.289c-2.648-4.291-10.89-2.063-11.452-9.772
	c2.177,0.46,3.609,0.705,5.012,1.07c3.372,0.875,6.662,1.2,7.073,6.231c0.366,4.479,4.689,6.295,8.667,7.069
	c3.788,0.736,7.545-0.04,11.446-2.616c-4.624-0.289-8.391-0.198-11.999-0.91c-1.475-0.291-3.666-2.353-3.628-3.55
	c0.047-1.519,1.749-3.735,3.242-4.288c2.373-0.878,5.164-0.615,7.776-0.86c1.328-0.126,2.65-0.31,4.21-0.493
	C930.512,69.797,925.522,71.708,916.312,76.532z M850.613,111.632c-2.196,1.739-4.251,3.181-6.043,4.897
	c-0.548,0.523-0.79,2.066-0.412,2.665c0.401,0.638,1.704,0.977,2.61,0.969c1.58-0.014,3.573-1.12,4.663-0.495
	c5.327,3.054,9.526-2.577,14.525-1.618c0.44,0.085,1.802-1.569,1.715-2.291c-0.55-4.49-1.083-9.034-2.334-13.353
	c-0.346-1.196-3.301-2.605-4.731-2.313c-2.945,0.602-5.875,1.963-8.437,3.598C848.147,106.256,847.605,109.678,850.613,111.632z
	 M843.573,75.475c-0.346-0.146-0.691-0.294-1.037-0.44c1.342-3.64,2.791-7.247,3.949-10.944c0.274-0.873-0.426-2.053-0.678-3.092
	c-0.927,0.454-2.513,0.739-2.679,1.387c-1.738,6.798-4.424,13.638-4.523,20.501c-0.12,8.372,6.497,12.137,12.616,8.576
	c3.856-2.244,7.235-5.071,7.15-9.864c-0.045-2.521-0.789-5.792-2.484-7.312c-1.734-1.558-5.036-1.893-7.614-1.793
	C846.67,72.555,845.138,74.419,843.573,75.475z M1011.735,114.525c-0.077-0.56-0.154-1.117-0.231-1.677
	c1.416-0.448,2.82-0.941,4.252-1.336c3.524-0.972,7.233-1.506,10.544-2.957c3.187-1.395,3.059-3.794,0.198-5.698
	c-4.245-2.826-13.148-2.796-17.329,0.057c-3.646,2.488-4.482,5.851-2.841,11.384c1.134,3.821,3.828,4.966,7.52,4.402
	c4.056-0.62,8.137-1.119,12.145-1.965c1.04-0.22,1.848-1.537,2.762-2.351c-0.128-0.34-0.256-0.679-0.384-1.017
	C1022.825,113.753,1017.28,114.139,1011.735,114.525z M947.637,45.704c1.57,3.613,2.224,6.434,3.835,8.508
	c2.279,2.936,5.091,0.925,7.482-0.372c2.049-1.111,4.049-2.399,5.835-3.891c3.439-2.872,3.172-8.303-0.903-9.576
	c-2.878-0.9-6.67-0.323-9.598,0.794c-2.747,1.048-4.617,2.424-6.611-0.899c-1.416-2.359-3.067-2.016-4.283,0.385
	c-2.313,4.569-4.706,9.104-6.825,13.764c-0.361,0.793,0.478,2.131,0.762,3.219c0.575,0.132,1.15,0.266,1.725,0.397
	c1.444-2.829,3.058-5.588,4.283-8.508C944.438,46.901,945.725,45.074,947.637,45.704z M874.146,76.653
	c0.128,0.467,0.254,0.933,0.381,1.397c-3.112,1.253-6.203,2.56-9.341,3.743c-5.538,2.09-5.71,2.293-4.559,7.528
	c3.852-0.432,7.898-0.44,11.676-1.453c2.879-0.772,4.705-0.993,6.155,2.029c0.455,0.95,1.956,1.398,3.153,2.192
	c0.438-4.844,0.847-9.061,1.17-13.285c0.042-0.546-0.229-1.219-0.568-1.675c-3.358-4.529-9.67-5.847-14.286-2.825
	c-0.846,0.553-1.118,1.983-1.655,3.008c1.16,0.095,2.337,0.354,3.477,0.242C871.23,77.41,872.683,76.967,874.146,76.653z
	 M920.6,115.493c-4.361,1.223-8.299,1.992-11.967,3.444c-4.073,1.61-7.98,0.507-9.029-3.235c-0.61-2.179-0.299-3.222,2.575-2.908
	c4.562,0.498,9.197,0.479,13.799,0.409c3.297-0.05,6.262-3.285,5.741-5.832c-0.604-2.944-4.249-5.188-7.488-4.088
	c-4.793,1.628-9.389,3.827-14.155,5.54c-3.748,1.346-5.076,3.875-4.236,7.55c0.824,3.61,3.309,6.961,6.797,6.499
	c5.817-0.772,11.44-3.04,17.115-4.774C920.071,118,920.123,117.022,920.6,115.493z M996.086,118.591
	c0.711,0.062,1.421,0.125,2.132,0.188c1.16-4.003,2.64-7.952,3.316-12.034c0.255-1.537-0.93-4.235-2.216-4.873
	c-1.632-0.809-4.118-0.381-6.082,0.119c-1.564,0.398-2.899,1.703-4.299,2.583c-1.441-1.769-2.581-3.109-3.656-4.501
	c-2.362-3.057-4.964-2.279-7.236-0.146c-1.923,1.803-3.929,3.835-4.975,6.178c-1.459,3.271-2.058,6.926-3.024,10.418
	c0.583,0.253,1.168,0.508,1.751,0.76c2.736-5.088,5.473-10.176,8.348-15.522c4.377,3.224,7.394,5.549,3.286,9.932
	c-0.662,0.707-0.094,2.566-0.094,3.891c0.639,0.419,1.277,0.837,1.916,1.255c2.879-3.512,5.683-7.091,8.706-10.473
	c0.589-0.658,2.037-0.548,3.091-0.791c0.119,1.003,0.467,2.043,0.305,2.997c-0.217,1.279-1.081,2.464-1.212,3.735
	C995.93,114.381,996.086,116.495,996.086,118.591z M758.755,97.829c1.749-1.219,3.346-1.726,3.799-2.743
	c4.312-9.647,10.956-17.112,20.062-22.474c1.025-0.604,1.596-1.983,2.376-3.004c-1.438-0.26-3.292-1.213-4.241-0.647
	c-2.876,1.711-6.22,3.508-7.872,6.198c-2.416,3.937-5.274,4.25-8.779,2.888c-1.683-0.652-2.847-2.542-4.484-3.438
	c-2.423-1.324-3.31-5.576-7.295-4.184c-0.183,4.595,6.582,10.337,13.521,11.707C764.812,87.587,757.263,89.818,758.755,97.829z
	 M1061.445,77.829c0,1.77,0,3.296,0,4.985c1.495-0.087,2.63-0.154,2.998-0.177c1.823-3.834,3.337-7.104,4.925-10.336
	c2.828-5.76,2.317-7.121-2.864-10.579c-4.962-3.311-8.414,0.522-11.863,2.567c-1.808,1.072-3.142,4.286-3.252,6.601
	C1051.17,75.497,1053.434,76.829,1061.445,77.829z M1090.28,73.83c0.214,0.253,0.428,0.505,0.642,0.758
	c-0.825,1.295-2.011,2.499-2.365,3.912c-0.301,1.2,0.358,2.642,0.593,3.977c1.323-0.623,3.309-0.897,3.854-1.932
	c1.893-3.596,3.336-7.435,4.833-11.228c0.323-0.818,0.555-2.211,0.123-2.657c-0.58-0.599-2.304-1.058-2.74-0.672
	c-2.698,2.377-3.676-0.425-5.445-1.369c-2.034-1.088-5.004-2.669-6.562-1.928c-3.005,1.432-6.772,2.744-6.97,7.545
	c-0.17,4.132,2.268,7.117,7.295,5.793C1085.819,75.428,1088.034,74.571,1090.28,73.83z M884.194,118.86
	c8.299-3.578,8.032-13.013,14.1-17.627c-7.447-0.361-7.353,8.179-12.625,10.265c-1.347-2.18-2.598-4.203-3.848-6.227
	c-2.016,1.442-4.031,2.885-6.312,4.515c-0.191-0.758-0.198-1.366-0.482-1.784c-0.837-1.235-1.786-2.395-2.69-3.584
	c-0.531,1.519-1.728,3.166-1.463,4.529c0.682,3.515,2.01,6.903,3.423,11.441c2.708-3.212,5.022-5.956,7.603-9.016
	C882.656,113.842,883.388,116.227,884.194,118.86z M929.558,108.479c0.227-0.553,0.453-1.106,0.68-1.659
	c1.945,0.289,3.915,0.476,5.83,0.905c1.041,0.233,1.99,1.209,2.979,1.206c0.519-0.002,1.61-1.588,1.432-2.118
	c-0.415-1.225-1.204-2.704-2.271-3.261c-3.606-1.884-7.271-1.431-10.333,1.212c-1.163,1.004-2.453,2.956-2.214,4.189
	c0.253,1.301,2.133,2.492,3.549,3.292c1.091,0.614,2.565,0.55,3.869,0.786c-0.043,0.422-0.086,0.843-0.128,1.264
	c-3.663,0-7.326,0-11.579,0c5.025,6.641,15.132,6.632,21.697-0.005C938.322,112.25,933.939,110.365,929.558,108.479z
	 M948.805,35.622c-0.134-0.262-0.268-0.525-0.401-0.788c-6.973-0.341-13.942-0.843-20.92-0.95c-3.121-0.049-6.997-1.93-9.495,3.39
	c5.385,0.404,10.377,0.78,15.276,1.148c-1.681,6.014-6.954,10.933-5.653,19.19c1.446-1.282,2.629-1.867,3.069-2.801
	c2.052-4.354,3.622-8.956,5.928-13.161c1.306-2.385,3.464-4.217,6.9-3.99C945.222,37.772,947.036,36.35,948.805,35.622z
	 M1033.429,89.304c7.275-4.641,7.877-7.955,2.383-11.042c0.489-1.755,0.985-3.534,1.324-4.748c3.563-0.872,6.624-1.623,9.684-2.373
	c-0.117-0.401-0.234-0.804-0.352-1.205c-2.618-0.591-5.236-1.181-8.389-1.892c0.985-1.212,1.729-1.799,2.021-2.559
	c0.513-1.335,1.489-3.525,0.969-4.04c-2.018-1.991-3.285-0.709-4.716,1.424c-1.471,2.189-3.849,3.772-6.321,6.078
	C1036.235,73.957,1029.888,82.295,1033.429,89.304z M834.181,116.042c-4.048-1.997-7.93-3.913-11.864-5.854
	c3.829-3.258,5.84-0.014,8.023,2.095c3.29-2.96,3.179-4.51-0.449-6.254c-3.491-1.678-6.89-1.284-9.94,1.087
	c-1.175,0.912-2.107,2.134-3.152,3.214c1.234,0.938,2.373,2.05,3.721,2.772c2.304,1.235,4.739,2.227,7.121,3.32
	c-0.161,0.413-0.321,0.826-0.481,1.239c-2.233-0.383-4.466-0.785-6.705-1.143c-2.106-0.336-4.377-3.03-6.416,0.202
	C819.506,123.073,828.718,123.042,834.181,116.042z M1008.199,77.94c0.394,4.141,4.674,8.694,7.747,7.316
	c4.582-2.054,8.785-5.006,12.978-7.832c0.79-0.532,1.341-2.443,1.032-3.406c-1.354-4.233-11.644-7.63-15.027-4.684
	C1012.231,71.682,1010.409,75.034,1008.199,77.94z M959.456,102.374c-0.231-0.304-0.464-0.608-0.696-0.912
	c-3.913,2.302-8.047,4.319-11.604,7.08c-1.045,0.811-1.104,3.989-0.438,5.596c0.638,1.539,3.163,3.717,4.232,3.412
	c4.659-1.325,9.171-3.285,13.562-5.382c1.562-0.745,3.919-3.37,3.701-3.706c-1.287-1.992-3.091-3.742-5.004-5.2
	C962.275,102.549,960.727,102.644,959.456,102.374z M970.747,53.629c0.422,0.127,0.842,0.256,1.263,0.383
	c1.315-1.708,2.552-3.486,3.97-5.104c1.471-1.677,2.896-3.566,4.749-4.689c1.96-1.187,4.399-1.58,6.629-2.318
	c-0.153,2.005-0.298,4.011-0.465,6.015c-0.073,0.872-0.478,1.841-0.211,2.577c0.249,0.685,1.118,1.368,1.85,1.577
	c0.528,0.152,1.742-0.346,1.856-0.771c0.786-2.891,2.19-5.946,1.829-8.746c-0.688-5.321-4.052-6.928-8.969-4.522
	c-2.918,1.429-5.353,3.844-7.506,5.443c-0.937-1.289-1.798-2.476-2.66-3.662c-0.605,1.171-1.504,2.283-1.744,3.523
	c-0.306,1.582-0.016,3.27-0.1,4.906C971.145,50.04,970.917,51.833,970.747,53.629z M802.198,75.167
	c-2.527,0.553-4.652,0.434-5.054,1.208c-1.543,2.978-3.16,6.162-3.575,9.42c-0.561,4.395,3.661,8.139,7.088,6.445
	c6.514-3.219,12.254-7.514,13.709-15.665c-1.608,0.482-3.208,1.24-3.869,2.494c-2.448,4.644-6.125,7.771-10.829,10.162
	C795.436,84.092,799.531,80.36,802.198,75.167z M825.031,76.118c1.841,0.146,3.146,0.25,4.449,0.354
	c-0.082-1.218,0.288-3.064-0.343-3.519c-1.191-0.856-3.371-1.713-4.418-1.172c-5.925,3.062-8.334,9.056-11.094,14.629
	c-0.403,0.814,0.445,2.25,0.716,3.397c0.461,0.141,0.923,0.281,1.384,0.421C818.893,85.427,822.059,80.626,825.031,76.118z
	 M814.272,102.964c-0.119-0.453-0.236-0.906-0.354-1.358c-1.221,0.726-2.938,1.157-3.575,2.229
	c-2.706,4.559-5.186,9.264-7.53,14.022c-0.56,1.136-0.279,2.687-0.479,5.264c2.425-1.817,4.476-2.58,5.15-3.998
	C809.992,113.853,812.048,108.369,814.272,102.964z M1013.165,29.453c-5.206-2.097-8.406-1.216-9.165,2.458
	c-1.046,5.066-1.308,10.294-1.905,15.453c0.609,0.141,1.218,0.281,1.826,0.421C1007.538,42.075,1004.455,33.114,1013.165,29.453z
	 M1038.542,94.012c-3.746-1.017-5.264,0.324-5.299,3.542c-0.038,3.408-0.175,6.828,0.079,10.219c0.087,1.151,1.23,2.223,1.892,3.331
	c0.312-0.187,0.625-0.372,0.938-0.559C1036.935,105.13,1037.718,99.716,1038.542,94.012z M901.786,60.297
	c1.987-5.235,3.646-9.251,4.984-13.37c0.336-1.035-0.349-2.404-0.564-3.619c-1.051,0.786-2.623,1.356-3.057,2.399
	c-1.443,3.477-2.66,7.077-3.538,10.732C899.396,57.336,900.793,58.623,901.786,60.297z M1037.81,121.216
	c0.377-0.359,0.755-0.72,1.132-1.079c-0.896-0.744-1.846-2.153-2.679-2.087c-1.448,0.114-2.825,1.139-4.231,1.781
	c0.204,0.462,0.409,0.923,0.614,1.385C1034.367,121.216,1036.088,121.216,1037.81,121.216z"/>
<path fill-rule="evenodd" clip-rule="evenodd" fill="#FFFFFF" d="M422.092,646.073c-0.442,1.212-0.623,2.627-1.37,3.605
	c-3.631,4.758-9.457,4.965-14.43,5.21c-2.588,0.128-5.981-3.506-7.939-6.216c-2.63-3.637-0.928-6.585,3.371-7.914
	c3.094-0.956,6.038-2.386,9.098-3.463C417.007,635.114,422.529,640.723,422.092,646.073z"/>
<path fill-rule="evenodd" clip-rule="evenodd" d="M353.342,85.528c-3.781,3.211-7.337,6.231-10.896,9.254
	C343.158,89.184,348.419,84.443,353.342,85.528z"/>
<path fill-rule="evenodd" clip-rule="evenodd" d="M981.563,74.127c-2.531,1.229-5.563,2.319-4.868,5.891
	c0.704,3.621,3.48,4.711,7.008,4.654c3.554-0.058,7.112,0.248,10.669,0.395c-0.006,0.729-0.013,1.457-0.02,2.186
	c-4.924,0-9.971,0.684-14.742-0.17c-6.203-1.107-7.583-6.104-7.419-12.206c-1.325,1.656-3.131,3.123-3.88,5.009
	c-1.644,4.145-3.854,4.768-6.492,2.411c-4.048,1.799-7.528,3.587-11.178,4.908c-5.038,1.825-7.83,0.766-9.982-2.708
	c-2.653-4.284,0.458-7.415,2.899-9.079c3.717-2.533,8.398-4.396,12.836-4.82c2.332-0.225,5.015,3.211,7.551,5.001
	c-0.138,0.268,0.042-0.091,0.23-0.444c3.413-6.367,3.651-6.836,10.033-3.594c2.915,1.48,4.479,0.65,6.776-0.333
	c5.521-2.359,10.996-3.132,16.135,1.16c2.221,1.854,2.429,3.355,0.196,5.43c-4.036,3.75-8.837,4.652-13.975,3.931
	c-2.572-0.361-3.703-2.272-2.781-4.962c0.313-0.915,0.659-1.818,0.994-2.72c0.443,0.591,1.123,1.114,1.285,1.767
	c0.781,3.127,3.278,2.756,5.362,2.41c1.706-0.283,3.273-1.398,5.111-2.24C989.287,71.042,985.321,73.704,981.563,74.127z
	 M947.608,85.788c3.702-2.153,6.857-3.638,9.529-5.737c0.934-0.731,0.674-2.982,0.958-4.54c-1.813-0.173-3.695-0.719-5.423-0.41
	c-1.63,0.293-3.285,1.261-4.589,2.341c-1.463,1.213-2.956,2.731-3.596,4.433C944.229,82.562,946.192,84.086,947.608,85.788z"/>
<path fill-rule="evenodd" clip-rule="evenodd" d="M916.312,76.532c9.211-4.823,14.2-6.734,17.421-0.424
	c-1.56,0.184-2.882,0.367-4.21,0.493c-2.612,0.245-5.403-0.018-7.776,0.86c-1.493,0.553-3.195,2.77-3.242,4.288
	c-0.038,1.197,2.153,3.259,3.628,3.55c3.608,0.712,7.375,0.621,11.999,0.91c-3.901,2.576-7.658,3.353-11.446,2.616
	c-3.978-0.774-8.301-2.59-8.667-7.069c-0.411-5.031-3.701-5.356-7.073-6.231c-1.402-0.365-2.835-0.61-5.012-1.07
	c0.562,7.709,8.804,5.481,11.452,9.772c-5.477,7.245-11.627-0.565-17.892,0.289c0.849-1.177,1.695-2.353,2.755-3.823
	c0.026,0.204,0.093-0.172-0.064-0.348c-1.452-1.627-2.944-3.218-4.425-4.82c-1.44,1.885-3.259,3.592-4.244,5.69
	c-2.401,5.11-2.246,5.184-7.086,7.306c0.889-3.457,1.426-6.052,2.244-8.553c0.537-1.641,1.561-3.115,2.227-4.721
	c1.356-3.266,5.809-4.857,9.123-3.508c1.27,0.518,3.056,0.63,4.318,0.158C906.191,69.708,912.238,71.298,916.312,76.532z"/>
<path fill-rule="evenodd" clip-rule="evenodd" d="M850.613,111.632c-3.008-1.954-2.466-5.376,1.557-7.941
	c2.562-1.635,5.491-2.996,8.437-3.598c1.431-0.292,4.386,1.117,4.731,2.313c1.251,4.318,1.784,8.862,2.334,13.353
	c0.087,0.722-1.274,2.376-1.715,2.291c-4.999-0.959-9.198,4.672-14.525,1.618c-1.09-0.625-3.083,0.481-4.663,0.495
	c-0.906,0.008-2.209-0.331-2.61-0.969c-0.378-0.599-0.136-2.142,0.412-2.665C846.362,114.813,848.417,113.372,850.613,111.632z
	 M852.301,110.618c3.892,0,7.274,0,12.158,0c-1.339-2.276-2.015-4.952-3.251-5.243C857.301,104.452,854.281,106.264,852.301,110.618
	z"/>
<path fill-rule="evenodd" clip-rule="evenodd" d="M843.573,75.475c1.564-1.056,3.097-2.92,4.7-2.982
	c2.578-0.1,5.88,0.235,7.614,1.793c1.695,1.521,2.439,4.791,2.484,7.312c0.085,4.793-3.294,7.62-7.15,9.864
	c-6.119,3.561-12.736-0.204-12.616-8.576c0.1-6.863,2.785-13.703,4.523-20.501c0.166-0.647,1.752-0.933,2.679-1.387
	c0.252,1.039,0.952,2.219,0.678,3.092c-1.158,3.697-2.607,7.305-3.949,10.944C842.882,75.181,843.228,75.329,843.573,75.475z
	 M841.133,82.625c1.646,2.274,2.459,3.682,3.538,4.84c2.997,3.217,7.56,1.375,9.808-4.425c0.64-1.649,0.218-4.839-0.946-5.749
	c-1.225-0.958-4.221-0.626-5.906,0.216C845.185,78.726,843.227,80.911,841.133,82.625z"/>
<path fill-rule="evenodd" clip-rule="evenodd" d="M1011.735,114.525c5.545-0.386,11.09-0.771,16.635-1.157
	c0.128,0.338,0.256,0.677,0.384,1.017c-0.914,0.813-1.722,2.131-2.762,2.351c-4.008,0.846-8.089,1.345-12.145,1.965
	c-3.691,0.563-6.386-0.581-7.52-4.402c-1.642-5.533-0.805-8.896,2.841-11.384c4.181-2.853,13.084-2.883,17.329-0.057
	c2.86,1.904,2.988,4.304-0.198,5.698c-3.311,1.451-7.02,1.985-10.544,2.957c-1.432,0.395-2.836,0.888-4.252,1.336
	C1011.581,113.408,1011.658,113.965,1011.735,114.525z M1010.519,109.429c4.201-0.984,7.628-1.786,11.054-2.588
	C1012.825,103.777,1012.046,103.958,1010.519,109.429z"/>
<path fill-rule="evenodd" clip-rule="evenodd" d="M947.637,45.704c-1.912-0.63-3.198,1.197-4.299,3.82
	c-1.226,2.92-2.839,5.679-4.283,8.508c-0.574-0.132-1.149-0.266-1.725-0.397c-0.284-1.088-1.123-2.426-0.762-3.219
	c2.119-4.659,4.512-9.194,6.825-13.764c1.216-2.4,2.867-2.744,4.283-0.385c1.994,3.323,3.864,1.947,6.611,0.899
	c2.928-1.117,6.72-1.694,9.598-0.794c4.075,1.273,4.343,6.704,0.903,9.576c-1.786,1.491-3.786,2.779-5.835,3.891
	c-2.392,1.297-5.203,3.308-7.482,0.372C949.86,52.137,949.207,49.317,947.637,45.704z M963.428,46.637
	c-0.042-0.588-0.085-1.176-0.126-1.764c-1.655-0.513-3.766-1.912-4.868-1.348c-2.029,1.041-4.081,2.971-4.972,5.027
	c-0.846,1.955,0.919,3.509,3.113,2.446C958.995,49.828,961.154,48.115,963.428,46.637z"/>
<path fill-rule="evenodd" clip-rule="evenodd" d="M874.146,76.653c-1.464,0.314-2.916,0.757-4.397,0.902
	c-1.14,0.112-2.316-0.147-3.477-0.242c0.537-1.024,0.81-2.455,1.655-3.008c4.616-3.021,10.928-1.704,14.286,2.825
	c0.339,0.456,0.61,1.129,0.568,1.675c-0.323,4.225-0.732,8.441-1.17,13.285c-1.197-0.794-2.698-1.242-3.153-2.192
	c-1.45-3.022-3.276-2.802-6.155-2.029c-3.777,1.013-7.824,1.021-11.676,1.453c-1.151-5.235-0.979-5.438,4.559-7.528
	c3.138-1.184,6.229-2.49,9.341-3.743C874.4,77.585,874.274,77.12,874.146,76.653z"/>
<path fill-rule="evenodd" clip-rule="evenodd" d="M920.6,115.493c-0.477,1.529-0.528,2.507-0.849,2.604
	c-5.675,1.734-11.298,4.002-17.115,4.774c-3.488,0.462-5.973-2.889-6.797-6.499c-0.84-3.675,0.488-6.204,4.236-7.55
	c4.767-1.713,9.362-3.912,14.155-5.54c3.239-1.101,6.884,1.144,7.488,4.088c0.521,2.547-2.444,5.782-5.741,5.832
	c-4.602,0.069-9.237,0.089-13.799-0.409c-2.874-0.313-3.186,0.729-2.575,2.908c1.049,3.742,4.956,4.846,9.029,3.235
	C912.301,117.485,916.238,116.715,920.6,115.493z M917.521,109.405c-4.009-3.559-7.276-3.23-11.432,1.409
	C910.271,110.298,913.705,109.875,917.521,109.405z"/>
<path fill-rule="evenodd" clip-rule="evenodd" d="M996.086,118.591c0-2.097-0.156-4.21,0.057-6.286
	c0.131-1.271,0.995-2.456,1.212-3.735c0.162-0.954-0.186-1.994-0.305-2.996c-1.054,0.242-2.502,0.132-3.091,0.79
	c-3.023,3.382-5.827,6.961-8.706,10.473c-0.639-0.418-1.277-0.836-1.916-1.255c0-1.324-0.568-3.184,0.094-3.891
	c4.107-4.383,1.091-6.708-3.286-9.932c-2.875,5.347-5.611,10.435-8.348,15.522c-0.583-0.252-1.168-0.507-1.751-0.76
	c0.967-3.492,1.565-7.146,3.024-10.418c1.046-2.343,3.052-4.375,4.975-6.178c2.272-2.133,4.874-2.91,7.236,0.146
	c1.075,1.392,2.215,2.732,3.656,4.501c1.399-0.88,2.734-2.185,4.299-2.583c1.964-0.5,4.45-0.928,6.082-0.119
	c1.286,0.638,2.471,3.336,2.216,4.873c-0.677,4.082-2.156,8.031-3.316,12.034C997.507,118.716,996.797,118.654,996.086,118.591z"/>
<path fill-rule="evenodd" clip-rule="evenodd" d="M758.755,97.829c-1.492-8.011,6.058-10.241,7.086-15.696
	c-6.938-1.37-13.703-7.112-13.521-11.707c3.985-1.393,4.872,2.859,7.295,4.184c1.638,0.896,2.802,2.785,4.484,3.438
	c3.505,1.362,6.363,1.049,8.779-2.888c1.652-2.69,4.996-4.487,7.872-6.198c0.949-0.565,2.803,0.388,4.241,0.647
	c-0.78,1.021-1.351,2.4-2.376,3.004c-9.106,5.361-15.751,12.826-20.062,22.474C762.101,96.103,760.504,96.61,758.755,97.829z"/>
<path fill-rule="evenodd" clip-rule="evenodd" d="M1061.445,77.829c-8.012-1-10.275-2.332-10.057-6.938
	c0.11-2.314,1.444-5.528,3.252-6.601c3.449-2.045,6.901-5.878,11.863-2.567c5.182,3.458,5.692,4.819,2.864,10.579
	c-1.588,3.232-3.102,6.502-4.925,10.336c-0.368,0.022-1.503,0.09-2.998,0.177C1061.445,81.125,1061.445,79.598,1061.445,77.829z
	 M1059.204,75.604c2.61-3.088,4.568-5.262,6.198-7.66c0.105-0.154-2.211-2.747-3.589-2.953c-2.847-0.426-7.573,3.642-6.913,5.744
	C1055.361,72.202,1057.067,73.277,1059.204,75.604z"/>
<path fill-rule="evenodd" clip-rule="evenodd" d="M1090.28,73.83c-2.246,0.741-4.461,1.599-6.744,2.199
	c-5.027,1.324-7.465-1.661-7.295-5.793c0.197-4.801,3.965-6.113,6.97-7.545c1.559-0.741,4.528,0.84,6.562,1.928
	c1.77,0.944,2.747,3.746,5.445,1.369c0.437-0.386,2.16,0.073,2.74,0.672c0.432,0.446,0.2,1.839-0.123,2.657
	c-1.497,3.793-2.94,7.632-4.833,11.228c-0.545,1.034-2.53,1.309-3.854,1.932c-0.234-1.335-0.894-2.776-0.593-3.977
	c0.354-1.413,1.54-2.617,2.365-3.912C1090.708,74.334,1090.494,74.083,1090.28,73.83z M1090.088,69.327
	c-0.177-0.511-0.354-1.021-0.532-1.531c-2.904-0.26-6.136-3.065-8.491,0.965c-0.624,1.068-0.232,2.729-0.353,4.942
	C1084.63,71.875,1087.359,70.601,1090.088,69.327z"/>
<path fill-rule="evenodd" clip-rule="evenodd" d="M884.194,118.86c-0.807-2.633-1.538-5.018-2.295-7.487
	c-2.58,3.06-4.895,5.804-7.603,9.016c-1.413-4.538-2.741-7.927-3.423-11.441c-0.265-1.363,0.932-3.011,1.463-4.529
	c0.904,1.189,1.854,2.349,2.69,3.584c0.284,0.418,0.291,1.026,0.482,1.784c2.28-1.63,4.296-3.072,6.312-4.515
	c1.25,2.023,2.501,4.047,3.848,6.227c5.272-2.086,5.178-10.626,12.625-10.265C892.227,105.847,892.493,115.282,884.194,118.86z"/>
<path fill-rule="evenodd" clip-rule="evenodd" d="M929.558,108.479c4.382,1.886,8.765,3.771,13.511,5.812
	c-6.565,6.637-16.672,6.646-21.697,0.005c4.253,0,7.916,0,11.579,0c0.042-0.421,0.085-0.842,0.128-1.264
	c-1.304-0.236-2.778-0.172-3.869-0.786c-1.416-0.8-3.296-1.991-3.549-3.292c-0.239-1.233,1.051-3.186,2.214-4.189
	c3.062-2.643,6.727-3.096,10.333-1.212c1.066,0.557,1.855,2.036,2.271,3.261c0.179,0.53-0.913,2.116-1.432,2.118
	c-0.988,0.003-1.938-0.973-2.979-1.206c-1.915-0.43-3.885-0.616-5.83-0.905C930.011,107.373,929.784,107.926,929.558,108.479z"/>
<path fill-rule="evenodd" clip-rule="evenodd" d="M948.805,35.622c-1.769,0.729-3.583,2.15-5.296,2.038
	c-3.437-0.227-5.595,1.605-6.9,3.99c-2.306,4.205-3.876,8.808-5.928,13.161c-0.44,0.934-1.623,1.519-3.069,2.801
	c-1.301-8.258,3.973-13.177,5.653-19.19c-4.899-0.368-9.892-0.744-15.276-1.148c2.498-5.319,6.374-3.438,9.495-3.39
	c6.978,0.107,13.947,0.609,20.92,0.95C948.537,35.096,948.671,35.36,948.805,35.622z"/>
<path fill-rule="evenodd" clip-rule="evenodd" d="M1033.429,89.304c-3.541-7.009,2.807-15.348-3.396-20.356
	c2.473-2.306,4.851-3.889,6.321-6.078c1.431-2.133,2.698-3.415,4.716-1.424c0.521,0.515-0.456,2.705-0.969,4.04
	c-0.292,0.76-1.036,1.347-2.021,2.559c3.152,0.711,5.771,1.301,8.389,1.892c0.117,0.401,0.234,0.804,0.352,1.205
	c-3.06,0.75-6.12,1.501-9.684,2.373c-0.339,1.214-0.835,2.993-1.324,4.748C1041.306,81.349,1040.704,84.664,1033.429,89.304z"/>
<path fill-rule="evenodd" clip-rule="evenodd" d="M780.169,79.802c1.833-3.949,4.572-5.422,7.492-4.026
	c2.963,1.414,5.156,6.994,3.699,9.762c-2.051,3.898-4.787,6.944-9.384,8.083c-4.377,1.085-8.274-0.455-9.209-4.126
	c-1.319-5.187,1.032-8.855,6.103-9.526c0.441-0.06,0.878-0.149,1.328-0.237c0.687,1.138,1.361,2.288,2.035,3.439
	c-1.042,0.409-2.055,0.932-3.13,1.202c-2.926,0.731-3.343,2.315-1.471,4.658c2.975,3.723,5.085,0.413,6.996-1.007
	c1.788-1.326,4.558-2.719,2.61-6.124C785.435,78.745,783.181,78.294,780.169,79.802z"/>
<path fill-rule="evenodd" clip-rule="evenodd" d="M834.181,116.042c-5.463,7-14.675,7.031-20.144,0.68
	c2.039-3.232,4.31-0.538,6.416-0.202c2.239,0.357,4.472,0.76,6.705,1.143c0.16-0.413,0.32-0.826,0.481-1.239
	c-2.382-1.094-4.817-2.085-7.121-3.32c-1.348-0.723-2.486-1.835-3.721-2.772c1.045-1.08,1.978-2.302,3.152-3.214
	c3.051-2.371,6.449-2.765,9.94-1.087c3.628,1.744,3.739,3.294,0.449,6.254c-2.184-2.108-4.194-5.353-8.023-2.095
	C826.251,112.128,830.133,114.044,834.181,116.042z"/>
<path fill-rule="evenodd" clip-rule="evenodd" d="M1008.199,77.94c2.21-2.906,4.032-6.258,6.729-8.605
	c3.384-2.946,13.674,0.45,15.027,4.684c0.309,0.963-0.242,2.874-1.032,3.406c-4.192,2.826-8.396,5.778-12.978,7.832
	C1012.873,86.634,1008.593,82.081,1008.199,77.94z M1012.685,77.53c1.044,1.593,2.177,3.851,2.506,3.739
	c3.088-1.047,6.09-2.397,8.981-3.919c0.587-0.309,0.645-1.688,0.862-2.594c0.049-0.203-0.214-0.665-0.405-0.713
	c-2.651-0.654-5.421-1.972-7.936-1.6C1015.212,72.661,1014.129,75.58,1012.685,77.53z"/>
<path fill-rule="evenodd" clip-rule="evenodd" d="M959.456,102.374c1.271,0.271,2.819,0.176,3.753,0.888
	c1.913,1.458,3.717,3.208,5.004,5.2c0.218,0.336-2.14,2.961-3.701,3.706c-4.391,2.097-8.902,4.057-13.562,5.382
	c-1.069,0.305-3.595-1.873-4.232-3.412c-0.666-1.606-0.607-4.785,0.438-5.596c3.558-2.761,7.691-4.778,11.604-7.08
	C958.992,101.765,959.225,102.07,959.456,102.374z M952.629,114.634c3.32-1.341,6.096-2.316,8.716-3.608
	c0.777-0.382,1.116-1.654,1.657-2.518c-1.183-0.605-2.445-1.83-3.53-1.69c-2.396,0.312-4.797,1.105-6.998,2.126
	c-0.912,0.424-1.827,1.942-1.811,2.947C950.678,112.823,951.935,113.734,952.629,114.634z"/>
<path fill-rule="evenodd" clip-rule="evenodd" d="M970.747,53.629c0.17-1.796,0.397-3.59,0.491-5.389
	c0.084-1.637-0.206-3.324,0.1-4.906c0.24-1.24,1.139-2.353,1.744-3.523c0.862,1.187,1.724,2.373,2.66,3.662
	c2.153-1.6,4.588-4.015,7.506-5.443c4.917-2.405,8.281-0.799,8.969,4.522c0.361,2.8-1.043,5.855-1.829,8.746
	c-0.114,0.425-1.328,0.923-1.856,0.771c-0.731-0.209-1.601-0.893-1.85-1.577c-0.267-0.736,0.138-1.705,0.211-2.577
	c0.167-2.004,0.312-4.01,0.465-6.015c-2.229,0.738-4.669,1.132-6.629,2.318c-1.854,1.123-3.278,3.013-4.749,4.689
	c-1.418,1.618-2.654,3.396-3.97,5.104C971.589,53.885,971.169,53.756,970.747,53.629z"/>
<path fill-rule="evenodd" clip-rule="evenodd" d="M802.198,75.167c-2.667,5.193-6.763,8.926-2.53,14.064
	c4.704-2.391,8.381-5.519,10.829-10.162c0.661-1.254,2.261-2.012,3.869-2.494c-1.455,8.151-7.195,12.446-13.709,15.665
	c-3.427,1.693-7.648-2.051-7.088-6.445c0.415-3.258,2.032-6.442,3.575-9.42C797.546,75.6,799.671,75.719,802.198,75.167z"/>
<path fill-rule="evenodd" clip-rule="evenodd" d="M893.732,49.836c-2.075-0.4-4.147-1.092-6.227-1.113
	c-1.853-0.02-3.714,0.701-5.871,1.159c-1.039,2.462,1.493,8.444-5.295,6.327c0.283-9.872,5.092-18.277,7.798-27.33
	c0.562-0.002,1.123-0.006,1.685-0.01c0.126,1.529,0.679,3.174,0.294,4.562c-0.938,3.388-2.356,6.644-3.492,9.981
	c-0.789,2.324,0.293,3.387,2.604,3.409c2.093,0.021,4.188,0.096,6.275,0.002c2.522-0.114,2.667,1.237,2.119,3.127L893.732,49.836z"
	/>
<path fill-rule="evenodd" clip-rule="evenodd" d="M825.031,76.118c-2.973,4.509-6.139,9.31-9.306,14.11
	c-0.461-0.14-0.923-0.28-1.384-0.421c-0.271-1.147-1.119-2.583-0.716-3.397c2.76-5.573,5.169-11.566,11.094-14.629
	c1.047-0.541,3.227,0.315,4.418,1.172c0.631,0.454,0.261,2.301,0.343,3.519C828.177,76.368,826.872,76.264,825.031,76.118z"/>
<path fill-rule="evenodd" clip-rule="evenodd" d="M893.623,49.951c1.633-3.357,3.166-6.768,4.934-10.052
	c1.298-2.411,1.242-6.575,5.847-5.376c-2.937,8.428-5.788,16.717-8.763,24.961c-0.249,0.69-1.334,1.078-2.03,1.606
	c-0.466-0.76-1.394-1.569-1.318-2.271c0.325-3.017,0.943-6.002,1.448-8.99C893.732,49.836,893.623,49.951,893.623,49.951z"/>
<path fill-rule="evenodd" clip-rule="evenodd" d="M814.272,102.964c-2.225,5.404-4.28,10.889-6.788,16.159
	c-0.675,1.418-2.726,2.181-5.15,3.998c0.199-2.577-0.081-4.128,0.479-5.264c2.345-4.759,4.824-9.464,7.53-14.022
	c0.638-1.072,2.354-1.504,3.575-2.229C814.036,102.058,814.153,102.511,814.272,102.964z"/>
<path fill-rule="evenodd" clip-rule="evenodd" d="M1013.165,29.453c-8.71,3.661-5.627,12.622-9.244,18.332
	c-0.608-0.14-1.217-0.28-1.826-0.421c0.598-5.159,0.859-10.387,1.905-15.453C1004.759,28.237,1007.959,27.356,1013.165,29.453z"/>
<path fill-rule="evenodd" clip-rule="evenodd" d="M1038.542,94.012c-0.824,5.704-1.607,11.118-2.391,16.533
	c-0.312,0.187-0.625,0.372-0.938,0.559c-0.661-1.108-1.805-2.18-1.892-3.331c-0.254-3.391-0.117-6.811-0.079-10.219
	C1033.278,94.336,1034.796,92.996,1038.542,94.012z"/>
<path fill-rule="evenodd" clip-rule="evenodd" d="M901.786,60.297c-0.993-1.675-2.391-2.961-2.175-3.857
	c0.878-3.655,2.095-7.256,3.538-10.732c0.434-1.043,2.006-1.613,3.057-2.399c0.216,1.215,0.9,2.584,0.564,3.619
	C905.432,51.046,903.773,55.062,901.786,60.297z"/>
<path fill-rule="evenodd" clip-rule="evenodd" d="M1037.81,121.216c-1.722,0-3.442,0-5.164,0c-0.205-0.462-0.41-0.923-0.614-1.385
	c1.406-0.643,2.783-1.667,4.231-1.781c0.833-0.066,1.782,1.343,2.679,2.087C1038.564,120.497,1038.187,120.857,1037.81,121.216z"/>
<path fill-rule="evenodd" clip-rule="evenodd" fill="#FFFFFF" d="M947.608,85.788c-1.416-1.701-3.379-3.226-3.12-3.914
	c0.64-1.701,2.133-3.22,3.596-4.433c1.304-1.08,2.959-2.048,4.589-2.341c1.728-0.309,3.609,0.237,5.423,0.41
	c-0.284,1.558-0.024,3.809-0.958,4.54C954.466,82.15,951.311,83.634,947.608,85.788z"/>
<path fill-rule="evenodd" clip-rule="evenodd" fill="#FFFFFF" d="M981.563,74.127c3.758-0.424,7.724-3.086,11.75,1.875
	c-1.838,0.842-3.405,1.957-5.111,2.24c-2.084,0.346-4.581,0.717-5.362-2.41c-0.162-0.652-0.842-1.176-1.285-1.767
	C981.551,74.057,981.563,74.127,981.563,74.127z"/>
<path fill-rule="evenodd" clip-rule="evenodd" fill="#FFFFFF" d="M852.301,110.618c1.98-4.354,5-6.166,8.907-5.243
	c1.236,0.291,1.912,2.967,3.251,5.243C859.575,110.618,856.192,110.618,852.301,110.618z"/>
<path fill-rule="evenodd" clip-rule="evenodd" fill="#FFFFFF" d="M841.133,82.625c2.094-1.714,4.052-3.898,6.493-5.118
	c1.686-0.842,4.682-1.174,5.906-0.216c1.164,0.91,1.586,4.1,0.946,5.749c-2.248,5.8-6.811,7.642-9.808,4.425
	C843.592,86.306,842.778,84.899,841.133,82.625z"/>
<path fill-rule="evenodd" clip-rule="evenodd" fill="#FFFFFF" d="M1010.519,109.429c1.527-5.472,2.307-5.652,11.054-2.588
	C1018.146,107.643,1014.72,108.445,1010.519,109.429z"/>
<path fill-rule="evenodd" clip-rule="evenodd" fill="#FFFFFF" d="M963.428,46.637c-2.273,1.478-4.433,3.19-6.853,4.362
	c-2.194,1.062-3.959-0.491-3.113-2.446c0.891-2.057,2.942-3.986,4.972-5.027c1.103-0.564,3.213,0.835,4.868,1.348
	C963.343,45.461,963.386,46.049,963.428,46.637z"/>
<path fill-rule="evenodd" clip-rule="evenodd" fill="#FFFFFF" d="M917.521,109.405c-3.816,0.471-7.251,0.894-11.432,1.409
	C910.245,106.174,913.513,105.846,917.521,109.405z"/>
<path fill-rule="evenodd" clip-rule="evenodd" fill="#FFFFFF" d="M1059.204,75.604c-2.137-2.327-3.843-3.402-4.304-4.869
	c-0.66-2.103,4.066-6.17,6.913-5.744c1.378,0.206,3.694,2.799,3.589,2.953C1063.772,70.342,1061.814,72.516,1059.204,75.604z"/>
<path fill-rule="evenodd" clip-rule="evenodd" fill="#FFFFFF" d="M1090.088,69.327c-2.729,1.274-5.458,2.548-9.376,4.376
	c0.12-2.213-0.271-3.874,0.353-4.942c2.355-4.03,5.587-1.225,8.491-0.965C1089.733,68.306,1089.911,68.816,1090.088,69.327z"/>
<path fill-rule="evenodd" clip-rule="evenodd" fill="#FFFFFF" d="M780.169,79.802c3.012-1.508,5.266-1.058,7.07,2.098
	c1.947,3.405-0.822,4.798-2.61,6.124c-1.911,1.42-4.021,4.729-6.996,1.007c-1.872-2.343-1.455-3.927,1.471-4.658
	c1.075-0.271,2.088-0.793,3.13-1.202c-0.674-1.151-1.349-2.302-2.035-3.439C780.188,79.744,780.169,79.802,780.169,79.802z"/>
<path fill-rule="evenodd" clip-rule="evenodd" fill="#FFFFFF" d="M1012.685,77.53c1.444-1.95,2.527-4.869,4.009-5.086
	c2.515-0.372,5.284,0.945,7.936,1.6c0.191,0.048,0.454,0.51,0.405,0.713c-0.218,0.905-0.275,2.285-0.862,2.594
	c-2.892,1.521-5.894,2.872-8.981,3.919C1014.861,81.38,1013.729,79.123,1012.685,77.53z"/>
<path fill-rule="evenodd" clip-rule="evenodd" fill="#FFFFFF" d="M952.629,114.634c-0.694-0.9-1.951-1.812-1.966-2.743
	c-0.017-1.005,0.898-2.523,1.811-2.947c2.201-1.021,4.603-1.814,6.998-2.126c1.085-0.14,2.348,1.085,3.53,1.69
	c-0.541,0.863-0.88,2.136-1.657,2.518C958.725,112.318,955.949,113.293,952.629,114.634z"/>
<text transform="matrix(1 0 0 1 814.3662 501.1167)" font-family="'CourierNewPSMT'" font-size="36">svg:g</text>
<text transform="matrix(1 0 0 1 847.3447 196.2212)" font-family="'CourierNewPSMT'" font-size="36">svg:path</text>
<text transform="matrix(1 0 0 1 840.6074 236.2007)" font-family="'CourierNewPSMT'" font-size="36">+ svg:foreignObject</text>
<text transform="matrix(1 0 0 1 274.1689 179.2939)"><tspan x="0" y="0" font-family="'CourierNewPSMT'" font-size="36">svg:image </tspan><tspan x="-10.802" y="43.2" font-family="'CourierNewPSMT'" font-size="36">+ clip-path</tspan></text>
<text transform="matrix(1 0 0 1 299.3081 517.9478)" font-family="'CourierNewPSMT'" font-size="36">scg:circle</text>
<text transform="matrix(1 0 0 1 299.3081 718.1284)" font-family="'CourierNewPSMT'" font-size="36">svg:text</text>
</svg>
